<?xml version="1.0" encoding="UTF-8"?>
<svg xmlns="http://www.w3.org/2000/svg" width="180" height="180" viewBox="0 0 180 180" fill="none">
  <rect width="180" height="180" rx="32" fill="#F5FAFF"></rect>
  <g clip-path="url(#clip0_910_107163)">
    <path d="M125.903 38H54.6973C44.9233 38 37 45.9156 37 55.68V124.154C37 133.918 44.9233 141.834 54.6973 141.834H125.903C135.677 141.834 143.6 133.918 143.6 124.154V55.68C143.6 45.9156 135.677 38 125.903 38Z" fill="#00005B"></path>
    <path d="M79.8244 100.123H63.3052L59.9439 110.573C59.9009 110.752 59.8 110.912 59.657 111.028C59.514 111.145 59.3367 111.211 59.1524 111.217L50.7193 111.216C50.2421 111.216 50.0751 110.954 50.2188 110.43L64.5211 69.4501L64.6639 69.0196L64.7114 68.8723L64.8072 68.5645C64.8546 68.4056 64.9021 68.2371 64.95 68.0545C65.1374 67.1014 65.2331 66.1325 65.2361 65.1612C65.2264 65.0933 65.2327 65.024 65.2544 64.959C65.2762 64.8939 65.3127 64.8348 65.3613 64.7863C65.4098 64.7378 65.469 64.7012 65.5342 64.6795C65.5993 64.6578 65.6686 64.6515 65.7366 64.6611H77.107C77.4401 64.6611 77.6304 64.7801 77.6791 65.0185L93.9119 110.502C94.0547 110.978 93.9119 111.217 93.483 111.216H84.1863C84.0266 111.234 83.866 111.193 83.7344 111.101C83.6028 111.009 83.5093 110.872 83.4713 110.716L79.8244 100.123ZM65.8798 91.3113H77.1786L77.0174 90.7801L76.7588 89.939L76.3803 88.7342L75.6537 86.46L74.9616 84.2743L73.6741 80.2021C73.3184 79.078 72.9769 77.9494 72.6498 76.8167L72.2841 75.5287L71.8894 74.1172L71.5288 72.8081H71.4572C71.0995 74.5229 70.6638 76.2206 70.1513 77.8958L69.6683 79.4445L68.5065 83.1885L67.9177 85.0959C67.8111 85.4403 67.7053 85.781 67.5992 86.1176L67.2827 87.1152L66.9679 88.0894L66.6548 89.0396L66.3433 89.966C66.1884 90.4236 66.0335 90.8716 65.8798 91.3113ZM120.228 96.0554H106.141C106.313 97.4478 106.776 98.7886 107.5 99.9912C108.299 101.182 109.43 102.113 110.753 102.67C112.546 103.445 114.485 103.825 116.438 103.783C117.988 103.754 119.532 103.584 121.051 103.278C122.409 103.094 123.741 102.748 125.016 102.245C125.254 102.055 125.374 102.174 125.374 102.602V109.389C125.386 109.574 125.349 109.759 125.266 109.925C125.185 110.055 125.075 110.164 124.945 110.246C123.53 110.872 122.041 111.316 120.514 111.565C118.44 111.954 116.332 112.134 114.221 112.101C110.942 112.101 108.177 111.609 105.928 110.626L105.711 110.529C103.549 109.577 101.639 108.134 100.134 106.314C98.7278 104.599 97.682 102.619 97.0587 100.492C96.4418 98.3918 96.1289 96.2146 96.1296 94.0262C96.1231 91.6366 96.4973 89.2612 97.2381 86.9891C97.9516 84.7729 99.0799 82.7123 100.563 80.9168C102.026 79.1421 103.856 77.7042 105.926 76.7014C108.024 75.6781 110.503 75.3107 113.363 75.3107C115.736 75.2508 118.092 75.7143 120.265 76.6681C122.091 77.4465 123.699 78.6598 124.948 80.2021C126.12 81.7124 127.015 83.4174 127.594 85.2386C128.158 86.9937 128.447 88.825 128.452 90.6682C128.452 91.7165 128.417 92.6692 128.345 93.5261L128.282 94.26L128.215 94.9563L128.175 95.3091C128.172 95.3339 128.169 95.3588 128.166 95.3836C128.148 95.541 128.072 95.6862 127.953 95.7915C127.835 95.8969 127.682 95.9551 127.523 95.9552L127.327 95.9593L127.082 95.9718L126.892 95.9855L126.447 96.0234L126.057 96.0621C125.951 96.0733 125.84 96.0837 125.726 96.0933L125.371 96.1211L124.993 96.1461L124.591 96.1669L124.165 96.1848L123.944 96.1923L123.483 96.2048C123.027 96.216 122.559 96.1877 122.08 96.1528L121.353 96.0995C120.979 96.0721 120.603 96.0574 120.228 96.0554ZM106.141 89.5471H115.879L116.708 89.5417L117.272 89.5338L117.637 89.5255L118.047 89.5113C118.414 89.4747 118.768 89.3575 119.084 89.1681V88.7396C119.07 88.1809 118.974 87.6273 118.798 87.0964C118.413 85.8776 117.637 84.8189 116.591 84.0832C115.544 83.3474 114.285 82.9752 113.006 83.0238C111.803 82.9511 110.604 83.2299 109.556 83.8261C108.509 84.4224 107.657 85.3104 107.106 86.3817C106.616 87.3783 106.29 88.4469 106.141 89.5471Z" fill="#9999FF"></path>
  </g>
  <defs>
    <clipPath id="clip0_910_107163">
      <rect width="106.6" height="104" fill="white" transform="translate(37 38)"></rect>
    </clipPath>
  </defs>
</svg>
