<?xml version="1.0" encoding="UTF-8"?>
<svg xmlns="http://www.w3.org/2000/svg" width="181" height="181" viewBox="0 0 181 181" fill="none">
  <rect x="0.724121" y="0.405762" width="180" height="180" rx="32" fill="#F5FAFF"></rect>
  <g clip-path="url(#clip0_910_107146)">
    <path d="M125.903 38H54.6973C44.9233 38 37 45.9156 37 55.68V124.154C37 133.918 44.9233 141.834 54.6973 141.834H125.903C135.677 141.834 143.6 133.918 143.6 124.154V55.68C143.6 45.9156 135.677 38 125.903 38Z" fill="#330000"></path>
    <path d="M88.6567 100.313H72.1379L68.7767 110.743C68.7309 110.933 68.6202 111.102 68.4635 111.219C68.3068 111.336 68.1141 111.396 67.9184 111.386H59.5516C59.0748 111.386 58.9078 111.124 59.0511 110.6L73.3534 69.45C73.4962 69.0216 73.6395 68.5336 73.7823 67.9857C73.9697 67.0323 74.0654 66.0638 74.0684 65.0924C74.0586 65.0245 74.0648 64.9552 74.0866 64.8901C74.1083 64.825 74.1448 64.7658 74.1934 64.7172C74.242 64.6687 74.3012 64.6321 74.3663 64.6103C74.4315 64.5886 74.5009 64.5823 74.5689 64.592H85.9393C86.2724 64.592 86.4631 64.7114 86.5114 64.9498L102.744 110.671C102.887 111.148 102.744 111.387 102.315 111.386H93.0186C92.8589 111.404 92.6983 111.363 92.5667 111.271C92.4351 111.179 92.3416 111.042 92.3036 110.886L88.6567 100.313ZM74.7121 91.3113H86.0109L85.8497 90.78L85.5911 89.9389L85.4067 89.3482L85.1123 88.418L84.4864 86.4599L83.9359 84.7239L82.5064 80.202C82.1506 79.0779 81.8091 77.9493 81.482 76.8166L81.2205 75.8972L80.9149 74.8102L80.4485 73.1254L80.3611 72.808H80.2899C79.9321 74.5228 79.4963 76.2205 78.984 77.8957L77.923 81.3052L77.3392 83.1889L76.75 85.0958C76.6434 85.4403 76.5376 85.781 76.4315 86.1175L76.115 87.1151L75.8002 88.0893L75.487 89.0395L75.1756 89.9659C75.0723 90.2708 74.969 90.5716 74.8662 90.8686L74.7121 91.3113ZM112.397 72.1649C111.668 72.1941 110.941 72.0692 110.263 71.7984C109.585 71.5276 108.972 71.1169 108.464 70.5932C107.958 70.0468 107.564 69.4057 107.307 68.7069C107.049 68.008 106.932 67.2651 106.962 66.521C106.936 65.7843 107.066 65.0504 107.344 64.3673C107.621 63.6842 108.039 63.0671 108.571 62.5565C109.598 61.5721 110.965 61.0212 112.388 61.0186L112.54 61.0202C114.257 61.0202 115.604 61.5319 116.581 62.5561C117.074 63.0882 117.458 63.7123 117.709 64.3927C117.961 65.0731 118.075 65.7963 118.047 66.521C118.077 67.2681 117.956 68.0136 117.692 68.7133C117.428 69.4129 117.026 70.0523 116.509 70.5936C115.988 71.107 115.369 71.5109 114.689 71.7817C114.009 72.0525 113.282 72.1846 112.55 72.1703L112.397 72.1649ZM107.463 110.671V76.5229C107.463 76.0944 107.653 75.8797 108.035 75.8797H116.831C117.212 75.8797 117.403 76.094 117.403 76.5229V110.671C117.403 111.148 117.213 111.387 116.831 111.386H108.107C107.7 111.386 107.486 111.172 107.465 110.745L107.463 110.671Z" fill="#FF9A00"></path>
  </g>
  <defs>
    <clipPath id="clip0_910_107146">
      <rect width="106.6" height="104" fill="white" transform="translate(37 38)"></rect>
    </clipPath>
  </defs>
</svg>
