<?xml version="1.0" encoding="UTF-8"?>
<svg xmlns="http://www.w3.org/2000/svg" width="181" height="180" viewBox="0 0 181 180" fill="none">
  <rect x="0.895508" width="180" height="180" rx="32" fill="#F5FAFF"></rect>
  <path d="M74.3332 140C83.5332 140 90.9998 132.533 90.9998 123.333V106.667H74.3332C65.1332 106.667 57.6665 114.133 57.6665 123.333C57.6665 132.533 65.1332 140 74.3332 140Z" fill="#0ACF83"></path>
  <path d="M57.6665 89.9999C57.6665 80.7999 65.1332 73.3333 74.3332 73.3333H90.9998V106.667H74.3332C65.1332 106.667 57.6665 99.1999 57.6665 89.9999Z" fill="#A259FF"></path>
  <path d="M57.6665 56.6667C57.6665 47.4667 65.1332 40 74.3332 40H90.9998V73.3333H74.3332C65.1332 73.3333 57.6665 65.8667 57.6665 56.6667Z" fill="#F24E1E"></path>
  <path d="M91 40H107.667C116.867 40 124.333 47.4667 124.333 56.6667C124.333 65.8667 116.867 73.3333 107.667 73.3333H91V40Z" fill="#FF7262"></path>
  <path d="M124.333 89.9999C124.333 99.1999 116.867 106.667 107.667 106.667C98.4667 106.667 91 99.1999 91 89.9999C91 80.7999 98.4667 73.3333 107.667 73.3333C116.867 73.3333 124.333 80.7999 124.333 89.9999Z" fill="#1ABCFE"></path>
</svg>
