<?xml version="1.0" encoding="UTF-8"?>
<svg xmlns="http://www.w3.org/2000/svg" width="181" height="181" viewBox="0 0 181 181" fill="none">
  <rect x="0.447754" y="0.405762" width="180" height="180" rx="32" fill="#F5FAFF"></rect>
  <g clip-path="url(#clip0_910_107169)">
    <path d="M125.903 38H54.6973C44.9233 38 37 45.9156 37 55.68V124.154C37 133.918 44.9233 141.834 54.6973 141.834H125.903C135.677 141.834 143.6 133.918 143.6 124.154V55.68C143.6 45.9156 135.677 38 125.903 38Z" fill="#001E36"></path>
    <path d="M61.0029 110.815V65.1637C61.0029 64.8309 61.1462 64.6637 61.4322 64.6637L61.8849 64.6625L62.6586 64.6541L63.7337 64.6329L67.3356 64.5568L71.1978 64.4852C72.5561 64.4619 73.9028 64.4495 75.2378 64.4495C78.8605 64.4495 81.9115 64.9021 84.3912 65.8069C86.628 66.5627 88.6679 67.8074 90.3625 69.4502C91.799 70.8743 92.9091 72.5928 93.6163 74.4871C94.2852 76.3305 94.6242 78.2771 94.6177 80.2379C94.6177 84.0489 93.7354 87.1922 91.9715 89.6682C90.2462 92.0838 87.8398 93.9312 85.0591 94.9747L84.8205 95.0621C81.9169 96.1441 78.7014 96.5351 75.1749 96.5597L74.6269 96.5613L73.8137 96.5572L73.4035 96.5514L72.9463 96.5405L72.6706 96.5297L72.5032 96.521L72.0914 96.506L71.588 96.4956L70.8301 96.4902L70.6615 96.4898V110.743C70.674 110.831 70.666 110.92 70.6381 111.003C70.6102 111.087 70.5631 111.163 70.5006 111.226C70.4382 111.288 70.362 111.335 70.2782 111.363C70.1943 111.391 70.1052 111.399 70.0177 111.386H61.5039C61.1695 111.386 61.0029 111.197 61.0029 110.815ZM70.6619 73.2366V88.1261C71.2326 88.1721 71.8049 88.196 72.3775 88.1977H74.7377C76.3649 88.1922 77.9826 87.9502 79.5401 87.4792L79.8507 87.3823C81.2676 86.9619 82.5336 86.1434 83.498 85.0244C84.3941 83.9686 84.8584 82.5138 84.8905 80.6597L84.8926 80.4521C84.93 79.0702 84.5703 77.7065 83.8553 76.523C83.1039 75.3784 82.0178 74.4928 80.7448 73.9867C79.0824 73.3412 77.3068 73.0376 75.5243 73.0939L74.6173 73.0964L74.0452 73.1014L73.4993 73.1085L72.7289 73.1235L72.1668 73.1393L71.8749 73.1501L71.4847 73.1684L71.1524 73.1888L70.963 73.2038L70.7993 73.2196L70.7273 73.2279L70.6619 73.2366ZM122.267 85.4188C121.02 84.7783 119.696 84.2973 118.329 83.9869L118.012 83.9187C116.508 83.5737 114.972 83.3837 113.428 83.3517L113.042 83.3471C112.138 83.3226 111.234 83.4309 110.361 83.6687C109.805 83.7922 109.311 84.1084 108.966 84.5614C108.733 84.9238 108.609 85.3454 108.609 85.7761C108.622 86.1938 108.772 86.5956 109.037 86.9189C109.417 87.3623 109.873 87.7339 110.385 88.0159L110.539 88.0978C111.559 88.6463 112.61 89.1352 113.686 89.5621C116.086 90.3648 118.379 91.4564 120.515 92.8128C121.97 93.7303 123.174 94.9947 124.019 96.4923C124.73 97.9101 125.086 99.4789 125.056 101.064C125.099 103.158 124.5 105.214 123.34 106.958C122.098 108.728 120.372 110.105 118.37 110.923C116.272 111.844 113.696 112.319 110.642 112.351L110.325 112.352C108.432 112.371 106.541 112.206 104.68 111.858L104.282 111.781C102.715 111.494 101.19 111.014 99.7412 110.352C99.5956 110.277 99.4726 110.164 99.3846 110.026C99.2967 109.888 99.247 109.729 99.2407 109.565V101.779C99.2321 101.703 99.2442 101.627 99.2758 101.558C99.3073 101.488 99.3571 101.429 99.4197 101.386C99.4811 101.351 99.5516 101.336 99.6219 101.342C99.6921 101.349 99.7587 101.376 99.8128 101.421C101.524 102.429 103.381 103.164 105.319 103.6C107.027 104.028 108.779 104.256 110.539 104.279C112.208 104.279 113.435 104.065 114.222 103.636C114.578 103.474 114.878 103.212 115.088 102.882C115.297 102.552 115.406 102.169 115.402 101.779C115.402 101.161 115.045 100.565 114.33 99.9929C114.03 99.7533 113.6 99.4925 113.04 99.2108L112.772 99.0794L112.487 98.945L112.337 98.8768L112.023 98.7378C111.968 98.7141 111.914 98.6905 111.859 98.6671L111.518 98.524L111.34 98.4512L110.971 98.3035L110.779 98.2287L110.382 98.076L109.967 97.9208C107.722 97.1401 105.593 96.0586 103.638 94.706C102.241 93.7348 101.09 92.4503 100.278 90.9553C99.5743 89.5476 99.2188 87.992 99.2407 86.4188C99.2367 84.5286 99.7564 82.6741 100.742 81.0608C101.867 79.2844 103.481 77.87 105.391 76.989C107.488 75.9419 110.11 75.4177 113.257 75.4169C115.1 75.4021 116.941 75.5336 118.763 75.81C120.083 75.9772 121.373 76.3258 122.596 76.8458C122.793 76.9024 122.952 77.0476 123.025 77.239C123.074 77.4133 123.098 77.5934 123.097 77.7748V84.9903C123.107 85.1609 123.025 85.3243 122.883 85.4188C122.787 85.4663 122.682 85.491 122.575 85.491C122.468 85.491 122.363 85.4663 122.267 85.4188Z" fill="#31A8FF"></path>
  </g>
  <defs>
    <clipPath id="clip0_910_107169">
      <rect width="106.6" height="104" fill="white" transform="translate(37 38)"></rect>
    </clipPath>
  </defs>
</svg>
