<?xml version="1.0" encoding="UTF-8"?>
<svg xmlns="http://www.w3.org/2000/svg" width="181" height="181" viewBox="0 0 181 181" fill="none">
  <rect x="0.895508" y="0.405762" width="180" height="180" rx="32" fill="#F5FAFF"></rect>
  <g clip-path="url(#clip0_910_107156)">
    <path d="M126.903 38H55.6973C45.9233 38 38 45.9156 38 55.68V124.154C38 133.918 45.9233 141.834 55.6973 141.834H126.903C136.677 141.834 144.6 133.918 144.6 124.154V55.68C144.6 45.9156 136.677 38 126.903 38Z" fill="#470137"></path>
    <path d="M94.0388 65.3061L80.7376 87.2389L94.9682 110.529C95.0599 110.692 95.0853 110.883 95.0399 111.064C95.0178 111.142 94.9703 111.161 94.8975 111.164L94.8167 111.163L94.7184 111.16C94.6651 111.16 94.6056 111.163 94.5393 111.173H84.2791L84.0776 111.17C83.5246 111.156 83.1261 111.077 82.8833 110.671C81.9339 108.824 80.9804 106.978 80.0226 105.135C79.1659 103.491 78.2858 101.859 77.3826 100.24L76.9837 99.5267C75.9034 97.6087 74.8426 95.6797 73.8015 93.7402H73.7299C72.7684 95.6594 71.779 97.5646 70.7621 99.4552C69.7365 101.36 68.7234 103.254 67.7228 105.135C66.7216 107.017 65.6966 108.887 64.648 110.743C64.4794 111.121 64.1992 111.201 63.809 111.213L63.6466 111.216H53.8498L53.8073 111.217L53.6674 111.23C53.5895 111.234 53.5429 111.218 53.5279 111.1C53.501 110.926 53.5393 110.748 53.6353 110.6L67.4367 87.9532L53.9926 65.2354C53.8498 65.0457 53.8261 64.891 53.921 64.7712C53.9738 64.7101 54.04 64.6622 54.1145 64.6312C54.1891 64.6001 54.2698 64.5868 54.3503 64.5923H64.4332C64.6531 64.5803 64.8729 64.6169 65.0769 64.6996C65.2477 64.7965 65.3947 64.9309 65.5058 65.0927C66.3641 66.998 67.3176 68.9033 68.3666 70.8077C69.4073 72.7002 70.4681 74.5816 71.5487 76.4516C72.6128 78.2927 73.6028 80.1755 74.5165 82.0955H74.5881C75.5244 80.1759 76.4899 78.2707 77.4842 76.3805C78.4607 74.523 79.4621 72.6531 80.4873 70.772C81.4995 68.9149 82.4888 67.0456 83.455 65.1643C83.51 64.9879 83.6083 64.8282 83.7411 64.6996C83.9177 64.6103 84.1162 64.5731 84.3132 64.5923H93.6811C93.7673 64.5708 93.858 64.5779 93.9398 64.6124C94.0215 64.647 94.0899 64.7071 94.1345 64.7837C94.1791 64.8604 94.1976 64.9495 94.1872 65.0375C94.1767 65.1256 94.138 65.2079 94.0767 65.272L94.0392 65.307L94.0388 65.3061ZM115.055 112.095L114.562 112.1C111.27 112.15 108.009 111.467 105.015 110.1C102.226 108.811 99.8942 106.705 98.3286 104.063C96.7501 101.444 95.9397 98.1801 95.8989 94.2726L95.8973 93.9544C95.8705 90.6755 96.7093 87.4475 98.3291 84.5956C99.9502 81.773 102.314 79.4473 105.163 77.8706L105.408 77.7375C108.506 76.0227 112.249 75.1653 116.636 75.1653L116.827 75.1674L117.046 75.1745L117.292 75.1853L117.565 75.2011L118.024 75.2336L118.543 75.2752L118.924 75.3084V61.2343C118.924 60.9015 119.067 60.7343 119.353 60.7343H128.363C128.421 60.726 128.481 60.7313 128.537 60.7499C128.593 60.7684 128.643 60.7998 128.685 60.8413C128.727 60.8829 128.758 60.9336 128.777 60.9894C128.795 61.0452 128.8 61.1046 128.792 61.1628V103.385C128.792 104.094 128.82 104.857 128.875 105.674L129.008 107.528L129.079 108.6C129.087 108.748 129.051 108.896 128.975 109.023C128.898 109.151 128.785 109.252 128.649 109.314C126.325 110.283 123.904 111.001 121.427 111.457C119.324 111.845 117.193 112.058 115.055 112.095ZM118.924 103.242V83.7383C118.537 83.6337 118.143 83.5621 117.744 83.524C117.257 83.4751 116.767 83.4512 116.278 83.4525C114.543 83.4353 112.828 83.827 111.272 84.5956C109.757 85.348 108.464 86.4804 107.518 87.882C106.574 89.2615 106.085 91.0628 106.053 93.2859L106.052 93.5259C106.017 95.0831 106.272 96.6333 106.803 98.0978C107.235 99.278 107.918 100.351 108.805 101.241C109.655 102.061 110.683 102.672 111.809 103.027C112.998 103.412 114.241 103.605 115.491 103.599C116.158 103.599 116.778 103.575 117.35 103.527C117.807 103.493 118.26 103.418 118.703 103.303L118.924 103.242Z" fill="#FF61F6"></path>
  </g>
  <defs>
    <clipPath id="clip0_910_107156">
      <rect width="106.6" height="104" fill="white" transform="translate(38 38)"></rect>
    </clipPath>
  </defs>
</svg>
