<svg xmlns="http://www.w3.org/2000/svg" viewBox="0 0 550 370"><defs><style>.cls-1{isolation:isolate;}.cls-2,.cls-3{fill:#828282;}.cls-3{mix-blend-mode:multiply;}.cls-4{fill:#616161;}.cls-5{fill:#474747;}</style></defs><g class="cls-1"><g id="Layer_1" data-name="Layer 1"><path class="cls-2" d="M291.14,169.22H255.75a4.55,4.55,0,0,0,3.3-1.42l14.4-15.24,14.39,15.24A4.55,4.55,0,0,0,291.14,169.22Z"/><path class="cls-2" d="M276.75,136a4.55,4.55,0,0,0-6.61,0L264,142.52l-18-19.05a4.54,4.54,0,0,1,3.31-7.66h6.47a4.59,4.59,0,0,1,3.3,1.42Z"/><path class="cls-3" d="M280,139.45l-1.42-1.51,1.38,1.45S280,139.42,280,139.45Z"/><path class="cls-4" d="M297.62,169.22h-6.48a4.55,4.55,0,0,1-3.3-1.42l-14.39-15.24,6.54-6.92a4.55,4.55,0,0,0,.09-6.13l20.84,22.05A4.54,4.54,0,0,1,297.62,169.22Z"/><path class="cls-5" d="M280,145.64l-6.54,6.92-9.49-10,6.18-6.54a4.55,4.55,0,0,1,6.61,0l1.86,2,1.38,1.45s0,0,0,.06l.05.06A4.55,4.55,0,0,1,280,145.64Z"/><path class="cls-4" d="M273.45,152.56l-14.4,15.24a4.55,4.55,0,0,1-3.3,1.42h-6.48a4.54,4.54,0,0,1-3.3-7.66l18-19Z"/><path class="cls-3" d="M280,139.45l-1.42-1.51,1.38,1.45S280,139.42,280,139.45Z"/><circle class="cls-4" cx="293.69" cy="123.18" r="7.37"/><rect class="cls-4" x="256.33" y="94.56" width="34.21" height="5.32"/><path class="cls-2" d="M268.11,182.51a2.63,2.63,0,0,0-.77,1.87A2.67,2.67,0,0,0,270,187H225.51A11.56,11.56,0,0,1,214,175.48V147a2.68,2.68,0,0,0,.78,1.88,2.67,2.67,0,0,0,4.53-1.88v28.44a6.25,6.25,0,0,0,6.23,6.24h49.73a.5.5,0,0,0-.17,0h-5.41A2.61,2.61,0,0,0,268.11,182.51Z"/><path class="cls-2" d="M332.92,106.12v34.09c0-.11,0-.21,0-.32a2.61,2.61,0,0,0-.77-1.55,2.64,2.64,0,0,0-4.53,1.87V106.12a6.23,6.23,0,0,0-6.23-6.24h-9.13V94.56h9.13A11.56,11.56,0,0,1,332.92,106.12Z"/><rect class="cls-2" x="239.96" y="81.92" width="11.06" height="24.5" rx="5.53"/><rect class="cls-2" x="295.87" y="81.92" width="11.06" height="24.5" rx="5.53"/><path class="cls-4" d="M234.64,94.56v5.32h-9.13a6.23,6.23,0,0,0-6.23,6.24v34.09a2.68,2.68,0,0,0-2.65-2.66,2.67,2.67,0,0,0-2.66,2.66V106.12a11.55,11.55,0,0,1,11.54-11.56Z"/><path class="cls-4" d="M332.92,140.21v35.27A11.57,11.57,0,0,1,321.36,187H277.24a2.66,2.66,0,0,0-.34-5.3h-1.83a.5.5,0,0,1,.17,0h46.13a6.25,6.25,0,0,0,6.23-6.24v-28a2.66,2.66,0,0,0,5.3-.34v-7.22C332.9,140,332.92,140.1,332.92,140.21Z"/><path class="cls-4" d="M219.28,140.21V147a2.67,2.67,0,0,1-4.53,1.88A2.68,2.68,0,0,1,214,147v-6.83a2.64,2.64,0,0,1,4.53-1.87A2.64,2.64,0,0,1,219.28,140.21Z"/><path class="cls-4" d="M332.9,139.89v7.22a2.66,2.66,0,0,1-5.3.34v-7.24a2.64,2.64,0,0,1,4.53-1.87A2.61,2.61,0,0,1,332.9,139.89Z"/><path class="cls-4" d="M279.56,184.4a2.67,2.67,0,0,1-2.32,2.64H270a2.67,2.67,0,0,1-2.66-2.66,2.67,2.67,0,0,1,2.32-2.64h7.24A2.66,2.66,0,0,1,279.56,184.4Z"/><path class="cls-4" d="M176.41,242.9l-8.85,13.21-16.95-25.57a3.62,3.62,0,0,1,3-5.62h8.93a3.62,3.62,0,0,1,3,1.62Z"/><path class="cls-4" d="M198.66,286.66h-8.93a3.62,3.62,0,0,1-3-1.62l-10.85-16.36,8.85-13.21L201.67,281A3.62,3.62,0,0,1,198.66,286.66Z"/><path class="cls-2" d="M264.47,228.56a32,32,0,0,1-4.69,16.61,65.24,65.24,0,0,1-10.69,13.76q-6,5.86-15.72,14.1H212.76l4.24-3.57q10.68-8.91,17-14.87a69.63,69.63,0,0,0,10.59-12.43,23.08,23.08,0,0,0,4.23-12.72q0-5.69-2.66-8.91c-1.8-2.14-4.54-3.23-8.27-3.23s-6.57,1.25-8.57,3.74a14.53,14.53,0,0,0-2.92,7.42,3.25,3.25,0,0,1-3.26,2.77h-8.7a3.29,3.29,0,0,1-3.29-3.62c.87-7.15,3.55-12.69,7.87-16.66q7.51-6.91,19.1-6.91,12.72,0,19.52,6.73T264.47,228.56Z"/><path class="cls-3" d="M353.41,211.54v33.84h0v31.23a8,8,0,0,1,7.27-8.12,7.82,7.82,0,0,1,6.05,2.28,7.7,7.7,0,0,1,2.29,5.51v-30.9h0V204.59h-8.66A7,7,0,0,0,353.41,211.54Z"/><path class="cls-3" d="M391.35,204.59a7,7,0,0,0-7,6.95v33.84h0v31.23a8,8,0,0,1,7.28-8.12,7.81,7.81,0,0,1,8.32,7.79V204.59Z"/><path class="cls-4" d="M266.25,273v6A7,7,0,0,1,259.3,286H218.13L233.37,273Z"/><path class="cls-5" d="M329.49,255.79a37.52,37.52,0,0,1-7.06,22.26V234.13A35.72,35.72,0,0,1,329.49,255.79Z"/><path class="cls-3" d="M314.12,227.11a25.14,25.14,0,0,0-12.1-2.79,28,28,0,0,0-8.32,1.22,26,26,0,0,0-12.47,8.31,29,29,0,0,0-3.67,5.52A35.77,35.77,0,0,0,273.83,256a36.33,36.33,0,0,0,3.73,16.77,29.82,29.82,0,0,0,5.46,7.58l.07.07a26.48,26.48,0,0,0,4.62,3.66,25.94,25.94,0,0,0,5.77,2.72.19.19,0,0,0,.1,0,27,27,0,0,0,8.34,1.27,25.48,25.48,0,0,0,11.63-2.56c.19-.08.38-.19.57-.29a23.08,23.08,0,0,0,8.31-7.18V256.21a20,20,0,0,1-2.24,9.75,15.58,15.58,0,0,1-6,6.23,16,16,0,0,1-8.13,2.17,15.29,15.29,0,0,1-8-2.22,16.36,16.36,0,0,1-6-6.41,20,20,0,0,1-2.29-9.75,19.46,19.46,0,0,1,2.29-9.65,16.05,16.05,0,0,1,6-6.18,15.81,15.81,0,0,1,8-2.11,16.05,16.05,0,0,1,8.13,2.17,15.58,15.58,0,0,1,6,6.23,20,20,0,0,1,2.24,9.77V234.13A24.78,24.78,0,0,0,314.12,227.11Z"/><path class="cls-4" d="M369,276.28v10.8h-8.66a7,7,0,0,1-6.95-6.95v-3.52a8,8,0,0,1,7.27-8.12,7.82,7.82,0,0,1,6.05,2.28A7.7,7.7,0,0,1,369,276.28Z"/><path class="cls-4" d="M400,276.28v10.8h-8.65a7,7,0,0,1-7-6.95v-3.52a8,8,0,0,1,7.28-8.12,7.81,7.81,0,0,1,8.32,7.79Z"/><path class="cls-4" d="M338.15,225.32v61.76h-8.77a7,7,0,0,1-6.95-6.95v-2.08a37.52,37.52,0,0,0,7.06-22.26,35.72,35.72,0,0,0-7.06-21.66v-1.86a7,7,0,0,1,6.95-7Z"/><polygon class="cls-5" points="184.72 255.47 175.87 268.68 167.56 256.11 176.41 242.9 184.72 255.47"/><path class="cls-2" d="M167.56,256.11l8.31,12.57-11,16.38a3.62,3.62,0,0,1-3,1.6h-8a3.62,3.62,0,0,1-3-5.63Z"/><path class="cls-2" d="M201.41,230.55l-16.69,24.92-8.31-12.57,11-16.38a3.62,3.62,0,0,1,3-1.6h8A3.62,3.62,0,0,1,201.41,230.55Z"/><path class="cls-5" d="M233.37,273,218.13,286a6.94,6.94,0,0,1-6.94-6.94v-2.6a4.48,4.48,0,0,1,1.57-3.39Z"/></g></g></svg>