<?xml version="1.0" encoding="UTF-8"?>
<svg xmlns="http://www.w3.org/2000/svg" width="180" height="180" viewBox="0 0 180 180" fill="none">
  <rect width="180" height="180" rx="32" fill="#F5FAFF"></rect>
  <path d="M130.75 37H48.25C42.0391 37 37 42.0391 37 48.25V130.75C37 136.961 42.0391 142 48.25 142H130.75C136.961 142 142 136.961 142 130.75V48.25C142 42.0391 136.961 37 130.75 37ZM66.7656 119.617C65.4766 121.867 62.5937 122.617 60.3672 121.328C58.1172 120.039 57.3672 117.156 58.6563 114.93L62.0078 109.141C65.7812 107.992 68.875 108.883 71.2891 111.813L66.7656 119.617ZM99.3203 106.984H56.6875C54.1094 106.984 52 104.875 52 102.297C52 99.7188 54.1094 97.6094 56.6875 97.6094H68.6406L83.9687 71.0781L79.1641 62.7812C77.875 60.5312 78.6484 57.6719 80.875 56.3828C83.125 55.0937 85.9844 55.8672 87.2734 58.0938L89.3594 61.7031L91.4453 58.0938C92.7344 55.8437 95.6172 55.0937 97.8438 56.3828C100.094 57.6719 100.844 60.5547 99.5547 62.7812L79.4453 97.6094H94C98.7344 97.6094 101.383 103.164 99.3203 106.984ZM122.312 106.984H115.516L120.109 114.93C121.398 117.18 120.625 120.039 118.398 121.328C116.148 122.617 113.289 121.844 112 119.617C104.289 106.281 98.5234 96.25 94.6562 89.5937C90.7422 82.7969 93.5313 76 96.3203 73.7031C99.3906 79.0234 103.984 86.9922 110.125 97.6094H122.312C124.891 97.6094 127 99.7188 127 102.297C127 104.898 124.891 106.984 122.312 106.984Z" fill="#1AB2F2"></path>
</svg>
