<?xml version="1.0" encoding="UTF-8"?>
<svg xmlns="http://www.w3.org/2000/svg" width="181" height="181" viewBox="0 0 181 181" fill="none">
  <rect x="1.11963" y="0.905762" width="179" height="179" rx="31.5" fill="#F5FAFF"></rect>
  <rect x="1.11963" y="0.905762" width="179" height="179" rx="31.5" stroke="white"></rect>
  <path d="M90.9998 98.8163C95.8689 98.8163 99.8161 94.8691 99.8161 90.0001C99.8161 85.131 95.8689 81.1838 90.9998 81.1838C86.1308 81.1838 82.1836 85.131 82.1836 90.0001C82.1836 94.8691 86.1308 98.8163 90.9998 98.8163Z" fill="#61DAFB"></path>
  <path d="M91 108.063C117.127 108.063 138.307 99.9757 138.307 90C138.307 80.0244 117.127 71.9375 91 71.9375C64.8733 71.9375 43.6934 80.0244 43.6934 90C43.6934 99.9757 64.8733 108.063 91 108.063Z" stroke="#61DAFB" stroke-width="5"></path>
  <path d="M75.3574 99.0313C88.4207 121.658 106.014 135.957 114.653 130.969C123.292 125.981 119.706 103.595 106.643 80.9687C93.5792 58.3423 75.9858 44.0434 67.3467 49.0313C58.7075 54.0191 62.294 76.4049 75.3574 99.0313Z" stroke="#61DAFB" stroke-width="5"></path>
  <path d="M75.3574 80.9687C62.294 103.595 58.7075 125.981 67.3467 130.969C75.9858 135.957 93.5792 121.658 106.643 99.0312C119.706 76.4048 123.292 54.0191 114.653 49.0312C106.014 44.0434 88.4207 58.3423 75.3574 80.9687Z" stroke="#61DAFB" stroke-width="5"></path>
</svg>
