<?xml version="1.0" encoding="UTF-8"?>
<svg xmlns="http://www.w3.org/2000/svg" width="180" height="180" viewBox="0 0 180 180" fill="none">
  <rect width="180" height="180" rx="32" fill="#F5FAFF"></rect>
  <path d="M56.858 109.769C52.524 109.771 49.0023 106.245 49.0016 101.912L49 77.8556C48.9984 73.5263 52.5193 70.0008 56.8478 70C58.9522 69.9984 60.9227 70.8147 62.4081 72.2985C63.8934 73.7822 64.7104 75.7559 64.712 77.854L64.7096 101.911C64.7151 102.942 64.515 103.964 64.1212 104.917C63.7274 105.871 63.1477 106.736 62.4159 107.462C61.6885 108.196 60.8225 108.777 59.8684 109.173C58.9143 109.569 57.891 109.772 56.858 109.769ZM56.8517 72.1106C53.6799 72.1091 51.1091 74.6861 51.1083 77.8556L51.1122 101.909C51.112 103.433 51.717 104.895 52.7943 105.974C53.8716 107.052 55.3329 107.658 56.8572 107.66C57.612 107.66 58.3594 107.511 59.0566 107.222C59.7539 106.933 60.3874 106.509 60.9208 105.975C61.4542 105.441 61.8772 104.808 62.1654 104.11C62.4536 103.412 62.6015 102.665 62.6006 101.91V77.8525C62.5989 76.3289 61.9925 74.8684 60.9145 73.7917C59.8365 72.7151 58.3752 72.1104 56.8517 72.1106Z" fill="white"></path>
  <path d="M118.471 74.4055L116.36 74.4047L64.6157 74.4118L62.5035 74.4125L62.502 72.3003C62.4973 63.6293 67.221 55.5647 74.9584 50.8003L71.9501 45.3089C71.5823 44.6656 71.49 43.851 71.7044 43.106C71.8131 42.7344 71.9945 42.3881 72.2383 42.0873C72.482 41.7865 72.7831 41.5371 73.124 41.3537C73.5455 41.1217 74.0194 41.0012 74.5006 41.0039C75.5665 41.0039 76.5423 41.5823 77.0573 42.5167L80.2056 48.2522C83.4894 47.0505 86.96 46.4398 90.4567 46.4484C94.0613 46.4468 97.518 47.0565 100.79 48.2569L103.934 42.512C104.184 42.0536 104.553 41.6713 105.003 41.4052C105.452 41.1391 105.965 40.9991 106.487 41C106.968 40.9985 107.441 41.1163 107.865 41.3428C108.207 41.5261 108.508 41.776 108.752 42.0778C108.995 42.3796 109.175 42.727 109.282 43.0997C109.389 43.4672 109.423 43.8523 109.38 44.2328C109.337 44.6133 109.219 44.9815 109.033 45.316L106.026 50.8043C113.751 55.5788 118.469 63.6371 118.469 72.2933L118.471 74.4055ZM103.175 51.6135L107.184 44.2924C107.241 44.2004 107.279 44.0977 107.295 43.9906C107.311 43.8835 107.306 43.7742 107.278 43.6694C107.251 43.5646 107.202 43.4664 107.136 43.381C107.069 43.2955 106.986 43.2245 106.891 43.1723C106.796 43.12 106.692 43.0877 106.584 43.0772C106.476 43.0668 106.367 43.0784 106.264 43.1113C106.161 43.1443 106.065 43.198 105.984 43.269C105.902 43.3401 105.835 43.4271 105.788 43.5246L101.738 50.9201C98.3303 49.4066 94.5152 48.5559 90.4826 48.5598C86.4585 48.5559 82.6504 49.4034 79.2532 50.9115L75.1986 43.5325C75.1492 43.4402 75.0818 43.3588 75.0006 43.2928C74.9193 43.2268 74.8258 43.1777 74.7254 43.1482C74.6249 43.1187 74.5197 43.1095 74.4156 43.121C74.3116 43.1326 74.2109 43.1647 74.1195 43.2155C73.7305 43.4237 73.5873 43.9128 73.8041 44.2947L77.8148 51.6103C69.9342 55.6751 64.6095 63.4149 64.6142 72.3011L116.357 72.2949C116.36 63.4117 111.044 55.6876 103.175 51.6135ZM78.714 62.9273C78.1386 62.927 77.5868 62.6981 77.1801 62.291C76.7735 61.8839 76.5452 61.3319 76.5455 60.7564C76.5458 60.181 76.7747 59.6292 77.1818 59.2225C77.5889 58.8158 78.1409 58.5876 78.7164 58.5879C79.2919 58.5889 79.8435 58.8179 80.2506 59.2248C80.6576 59.6317 80.8868 60.1832 80.888 60.7588C80.8872 61.3346 80.6577 61.8865 80.25 62.2932C79.8424 62.6998 79.2898 62.9279 78.714 62.9273ZM102.275 62.9226C101.99 62.9231 101.708 62.8674 101.445 62.7586C101.181 62.6498 100.942 62.4901 100.741 62.2887C100.539 62.0872 100.379 61.8479 100.27 61.5846C100.161 61.3213 100.106 61.039 100.106 60.7541C100.108 60.1788 100.337 59.6276 100.744 59.2204C101.15 58.8133 101.701 58.5831 102.276 58.58C102.851 58.5848 103.4 58.8157 103.805 59.2228C104.211 59.6299 104.439 60.1804 104.442 60.7548C104.442 61.0394 104.386 61.3212 104.277 61.5842C104.168 61.8471 104.009 62.0861 103.807 62.2874C103.606 62.4887 103.367 62.6484 103.105 62.7574C102.842 62.8664 102.56 62.9225 102.275 62.9226ZM80.8826 138.29C76.5525 138.289 73.0285 134.767 73.0277 130.434L73.0262 119.817L70.9617 119.819C69.8789 119.823 68.8061 119.611 67.8055 119.197C66.805 118.783 65.8966 118.175 65.133 117.407C64.3641 116.644 63.7548 115.735 63.3406 114.734C62.9264 113.732 62.7155 112.659 62.7203 111.575L62.7125 74.303V72.1892H64.8247L116.18 72.1814L118.293 72.1798V74.292L118.299 111.569C118.3 116.115 114.601 119.814 110.057 119.814L107.98 119.815L107.982 130.429C107.982 134.759 104.459 138.285 100.13 138.285C99.0982 138.29 98.0754 138.089 97.1217 137.694C96.168 137.3 95.3024 136.719 94.5755 135.986C93.8422 135.26 93.2607 134.395 92.8648 133.441C92.4689 132.488 92.2664 131.465 92.2692 130.433V119.815H88.739V130.431C88.7374 134.762 85.215 138.29 80.8826 138.29Z" fill="white"></path>
  <path d="M64.8351 97.4793C64.8333 98.2848 64.9906 99.0827 65.2979 99.8273C65.6052 100.572 66.0565 101.249 66.6259 101.818C67.1952 102.388 67.8715 102.84 68.6158 103.148C69.3602 103.456 70.158 103.614 70.9635 103.612H75.137L75.1417 116.34C75.141 119.51 77.7157 122.085 80.882 122.086C81.6367 122.086 82.3839 121.937 83.0809 121.647C83.778 121.358 84.4112 120.934 84.9445 120.4C85.4778 119.866 85.9006 119.233 86.1889 118.535C86.4772 117.838 86.6252 117.09 86.6246 116.336L86.6254 103.612L94.3801 103.609L94.3793 116.336C94.3824 119.507 96.9603 122.085 100.126 122.079C103.3 122.081 105.873 119.503 105.872 116.332L105.868 103.608L110.058 103.607C113.438 103.608 116.187 100.862 116.187 97.4738L116.18 60.1953L64.8257 60.2047L64.8351 97.4793ZM124.148 96.7671C119.816 96.7679 116.292 93.2471 116.292 88.9131L116.286 64.858C116.288 60.5248 119.806 57 124.136 57C128.472 56.9992 131.998 60.5232 131.997 64.8556L132 88.9092C132.001 93.24 128.48 96.7679 124.148 96.7671ZM124.14 59.1122C120.968 59.1091 118.398 61.6846 118.398 64.858L118.401 88.9123C118.4 89.6669 118.549 90.4142 118.837 91.1114C119.126 91.8086 119.549 92.442 120.083 92.9755C120.616 93.509 121.25 93.9321 121.947 94.2205C122.645 94.509 123.392 94.6571 124.147 94.6565C124.901 94.6565 125.648 94.5078 126.345 94.219C127.042 93.9301 127.675 93.5068 128.209 92.9731C128.742 92.4395 129.165 91.806 129.453 91.1088C129.742 90.4116 129.89 89.6644 129.889 88.91L129.883 64.8564C129.883 64.102 129.735 63.355 129.447 62.6579C129.158 61.9609 128.735 61.3275 128.202 60.794C127.669 60.2606 127.036 59.8374 126.339 59.5489C125.642 59.2603 124.895 59.1119 124.14 59.1122Z" fill="white"></path>
  <path d="M56.8518 73.1046C53.68 73.103 51.1092 75.6801 51.1084 78.8495L51.1123 102.903C51.1118 103.658 51.2601 104.405 51.5486 105.103C51.8372 105.8 52.2604 106.434 52.794 106.967C53.3276 107.501 53.9612 107.924 54.6586 108.213C55.3559 108.502 56.1033 108.65 56.8581 108.65C57.6127 108.65 58.3601 108.502 59.0574 108.214C59.7547 107.925 60.3882 107.502 60.9217 106.968C61.4551 106.435 61.878 105.801 62.1661 105.103C62.4542 104.406 62.6019 103.659 62.6007 102.904V78.8464C62.599 77.3229 61.9926 75.8623 60.9146 74.7857C59.8366 73.709 58.3753 73.1044 56.8518 73.1046ZM103.175 51.5036L107.184 44.1825C107.286 43.9968 107.31 43.7782 107.251 43.5745C107.193 43.3709 107.055 43.1989 106.87 43.0963C106.684 42.9958 106.466 42.9729 106.264 43.0326C106.061 43.0923 105.89 43.2297 105.788 43.4148L101.739 50.8126C98.3312 49.296 94.5177 48.4461 90.4827 48.45C86.4586 48.4461 82.6466 49.2936 79.2533 50.8016L75.1988 43.4226C75.1493 43.3305 75.082 43.2492 75.0008 43.1832C74.9196 43.1173 74.8262 43.0682 74.7259 43.0386C74.6256 43.0091 74.5204 42.9997 74.4165 43.0111C74.3125 43.0225 74.2119 43.0544 74.1204 43.1049C74.0279 43.1543 73.9463 43.2216 73.8802 43.3029C73.8142 43.3843 73.765 43.478 73.7355 43.5785C73.7061 43.6791 73.697 43.7845 73.7088 43.8886C73.7206 43.9927 73.753 44.0934 73.8042 44.1849L77.8149 51.5013C69.9343 55.5653 64.6096 63.305 64.6143 72.1913L116.357 72.185C116.36 63.3019 111.044 55.5778 103.175 51.5036ZM78.7141 62.8175C78.1387 62.8172 77.5869 62.5883 77.1803 62.1812C76.7736 61.774 76.5453 61.222 76.5456 60.6466C76.5459 60.0711 76.7748 59.5194 77.1819 59.1127C77.589 58.706 78.141 58.4777 78.7165 58.478C79.292 58.4791 79.8436 58.7081 80.2507 59.115C80.6577 59.5219 80.8869 60.0734 80.8882 60.6489C80.8873 61.2248 80.6578 61.7767 80.2502 62.1833C79.8425 62.59 79.29 62.8181 78.7141 62.8175ZM102.275 62.8128C101.991 62.813 101.708 62.757 101.445 62.6481C101.182 62.5393 100.943 62.3795 100.741 62.1781C100.54 61.9767 100.38 61.7376 100.271 61.4744C100.162 61.2112 100.106 60.9291 100.106 60.6442C100.109 60.0693 100.339 59.5187 100.745 59.1117C101.151 58.7048 101.701 58.4743 102.276 58.4702C102.851 58.4749 103.4 58.7059 103.806 59.113C104.211 59.5201 104.439 60.0705 104.442 60.645C104.442 60.9297 104.386 61.2115 104.277 61.4746C104.169 61.7376 104.009 61.9767 103.808 62.178C103.607 62.3793 103.368 62.539 103.105 62.648C102.842 62.7569 102.56 62.8129 102.275 62.8128ZM64.8256 74.19L64.8342 111.469C64.8333 112.274 64.9912 113.071 65.2989 113.815C65.6066 114.559 66.058 115.235 66.6274 115.804C67.1967 116.374 67.8728 116.825 68.6168 117.133C69.3609 117.44 70.1583 117.598 70.9634 117.597L75.1369 117.599L75.1416 130.327C75.1408 133.496 77.7171 136.072 80.8819 136.072C84.0561 136.072 86.6277 133.494 86.6284 130.323L86.6253 117.598L94.38 117.595L94.3831 130.323C94.3831 133.49 96.9601 136.071 100.126 136.065C103.3 136.068 105.873 133.489 105.872 130.318L105.868 117.594L110.057 117.591C110.862 117.591 111.659 117.432 112.403 117.124C113.147 116.816 113.823 116.365 114.393 115.795C114.962 115.226 115.414 114.55 115.722 113.806C116.03 113.062 116.189 112.265 116.189 111.46L116.182 74.1814L64.8256 74.19ZM129.885 78.8409C129.885 78.0865 129.737 77.3395 129.448 76.6426C129.159 75.9456 128.736 75.3123 128.203 74.779C127.669 74.2456 127.036 73.8226 126.339 73.5341C125.642 73.2456 124.895 73.0972 124.14 73.0975C120.968 73.0944 118.398 75.6699 118.398 78.8433L118.403 102.898C118.402 103.653 118.551 104.4 118.839 105.097C119.128 105.794 119.551 106.427 120.084 106.961C120.617 107.494 121.251 107.917 121.948 108.206C122.645 108.494 123.392 108.642 124.146 108.642C124.901 108.642 125.648 108.493 126.345 108.205C127.042 107.916 127.675 107.492 128.209 106.959C128.742 106.425 129.165 105.791 129.453 105.094C129.742 104.397 129.89 103.65 129.889 102.895L129.885 78.8409Z" fill="#A4C439"></path>
</svg>
