<?xml version="1.0" encoding="UTF-8"?>
<svg xmlns="http://www.w3.org/2000/svg" width="180" height="180" viewBox="0 0 180 180" fill="none">
  <rect width="180" height="180" rx="32" fill="#F5FAFF"></rect>
  <path d="M117.094 39H62.9062C49.7032 39 39 49.7032 39 62.9062V117.094C39 130.297 49.7032 141 62.9062 141H117.094C130.297 141 141 130.297 141 117.094V62.9062C141 49.7032 130.297 39 117.094 39Z" fill="#4353FF"></path>
  <path d="M106.378 80.2128C106.378 80.2128 100.873 97.458 100.467 98.9222C100.304 97.4851 96.2909 66.4922 96.2909 66.4922C86.9089 66.4922 81.9197 73.1624 79.2621 80.2128C79.2621 80.2128 72.5648 97.5121 72.0225 98.9493C71.9954 97.5934 70.9921 80.3753 70.9921 80.3753C70.4224 71.7253 62.5317 66.4922 56.1328 66.4922L63.8338 113.429C73.6493 113.402 78.937 106.759 81.7025 99.6816C81.7025 99.6816 87.5867 84.4155 87.8309 83.7378C87.8851 84.3884 92.0607 113.429 92.0607 113.429C101.904 113.429 107.218 107.22 110.065 100.414L123.867 66.4922C114.133 66.4922 109.008 73.1353 106.378 80.2128Z" fill="white"></path>
</svg>
