<?xml version="1.0" encoding="UTF-8"?>
<svg xmlns="http://www.w3.org/2000/svg" width="181" height="181" viewBox="0 0 181 181" fill="none">
  <rect x="0.619629" y="0.405762" width="180" height="180" rx="32" fill="#F5FAFF"></rect>
  <path fill-rule="evenodd" clip-rule="evenodd" d="M91 115.339C118.614 115.339 141 103.994 141 90C141 76.0063 118.614 64.6614 91 64.6614C63.3863 64.6614 41 76.0063 41 90C41 103.994 63.3863 115.339 91 115.339Z" fill="#6E81B6"></path>
  <path fill-rule="evenodd" clip-rule="evenodd" d="M101.133 98.1899L103.613 85.4254C104.173 82.5444 103.708 80.3956 102.231 79.0377C100.8 77.7239 98.3702 77.0848 94.8042 77.0848H90.5091L91.7376 70.7606C91.7607 70.6429 91.7573 70.5215 91.7279 70.4053C91.6985 70.289 91.6437 70.1807 91.5675 70.0881C91.4912 69.9955 91.3955 69.9209 91.287 69.8697C91.1785 69.8185 91.0601 69.792 90.9401 69.792H85.012C84.6226 69.792 84.2882 70.0683 84.2139 70.4504L81.5796 84.0015C81.3402 82.4767 80.7501 81.1659 79.8057 80.0843C78.0668 78.0939 75.3164 77.0848 71.6301 77.0848H60.1401C59.7508 77.0848 59.4164 77.3611 59.342 77.7426L54.0112 105.173C53.9646 105.411 54.0269 105.657 54.1817 105.844C54.3359 106.032 54.5656 106.141 54.8093 106.141H60.784C61.1734 106.141 61.5077 105.864 61.5821 105.482L62.8717 98.8471H67.3193C69.653 98.8471 71.6144 98.5944 73.1453 98.0962C74.7106 97.5871 76.1514 96.7237 77.4211 95.5351C78.4471 94.5925 79.2948 93.5369 79.9471 92.3984L78.8824 97.8786C78.8359 98.1174 78.8981 98.3641 79.0529 98.5503C79.2071 98.7383 79.4374 98.8465 79.6805 98.8465H85.6087C85.9981 98.8465 86.3324 98.5702 86.4068 98.1887L89.3325 83.1321H93.4003C95.1337 83.1321 95.6416 83.4773 95.7801 83.6255C95.9052 83.7609 96.1652 84.2379 95.8732 85.7416L93.5152 97.8779C93.4926 97.9956 93.4962 98.1168 93.5259 98.2329C93.5555 98.349 93.6104 98.4572 93.6866 98.5496C93.7628 98.6421 93.8585 98.7165 93.9668 98.7678C94.0752 98.819 94.1934 98.8457 94.3133 98.8459H100.336C100.524 98.8463 100.707 98.781 100.852 98.6613C100.998 98.5416 101.097 98.3749 101.133 98.1899V98.1899ZM73.6489 87.6431C73.2765 89.5567 72.5751 90.9213 71.563 91.6994C70.5352 92.4921 68.8912 92.8935 66.6766 92.8935H64.0284L65.9432 83.0396H69.3671C71.8822 83.0396 72.8956 83.5771 73.3025 84.0275C73.8666 84.6527 73.9863 85.9036 73.6489 87.6431V87.6431ZM126.104 80.0843C124.366 78.0939 121.616 77.0848 117.929 77.0848H106.439C106.049 77.0848 105.716 77.3611 105.641 77.7426L100.311 105.173C100.264 105.411 100.326 105.657 100.481 105.844C100.636 106.032 100.866 106.141 101.108 106.141H107.083C107.473 106.141 107.807 105.864 107.881 105.482L109.171 98.8471H113.619C115.953 98.8471 117.913 98.5944 119.444 98.0962C121.01 97.5871 122.451 96.7237 123.72 95.5351C124.78 94.5623 125.651 93.4685 126.311 92.2877C126.971 91.1069 127.445 89.7901 127.721 88.3729C128.4 84.8776 127.856 82.0892 126.104 80.0843V80.0843ZM120.287 87.6431C119.914 89.5567 119.213 90.9213 118.202 91.6994C117.174 92.4921 115.53 92.8935 113.316 92.8935H110.667L112.581 83.0396H116.005C118.521 83.0396 119.534 83.5771 119.941 84.0275C120.504 84.6527 120.625 85.9036 120.287 87.6431V87.6431Z" fill="white"></path>
  <path fill-rule="evenodd" clip-rule="evenodd" d="M69.1971 82.2264C71.4668 82.2264 72.9802 82.6454 73.7365 83.4834C74.4923 84.3214 74.6725 85.7604 74.277 87.7985C73.8635 89.9213 73.0678 91.4364 71.8888 92.3445C70.7098 93.2527 68.9154 93.7061 66.5066 93.7061H62.8717L65.1027 82.2264H69.1971ZM54.6387 105.327H60.6134L62.0313 98.0351H67.1493C69.4075 98.0351 71.2655 97.7975 72.7238 97.3229C74.1821 96.8483 75.508 96.0532 76.7009 94.9365C77.7022 94.0169 78.5123 93.0011 79.1327 91.8911C79.7524 90.781 80.1926 89.5567 80.4531 88.2175C81.0856 84.9659 80.6085 82.4332 79.0232 80.6194C77.4386 78.8049 74.9167 77.898 71.4602 77.898H59.9701L54.6387 105.327V105.327ZM84.8414 70.6052H90.7696L89.3524 77.898H94.6343C97.956 77.898 100.249 78.4772 101.511 79.6363C102.772 80.7953 103.15 82.6738 102.645 85.2706L100.165 98.0351H94.1428L96.5007 85.8982C96.7686 84.5173 96.6706 83.5759 96.2045 83.0735C95.7383 82.5716 94.7462 82.3201 93.2298 82.3201H88.4921L85.4382 98.0351H79.51L84.8414 70.6052ZM115.836 82.2264C118.105 82.2264 119.618 82.6454 120.375 83.4834C121.131 84.3214 121.31 85.7604 120.915 87.7985C120.503 89.9213 119.707 91.4364 118.527 92.3445C117.349 93.2527 115.554 93.7061 113.146 93.7061H109.511L111.742 82.2264H115.836V82.2264ZM101.276 105.327H107.251L108.669 98.0351H113.787C116.045 98.0351 117.903 97.7975 119.362 97.3229C120.82 96.8483 122.146 96.0532 123.339 94.9365C124.34 94.0169 125.15 93.0011 125.77 91.8911C126.39 90.781 126.83 89.5567 127.092 88.2175C127.723 84.9659 127.246 82.4332 125.662 80.6194C124.076 78.8049 121.555 77.898 118.098 77.898H106.608L101.276 105.327V105.327Z" fill="black"></path>
</svg>
