<?xml version="1.0" encoding="UTF-8"?>
<svg xmlns="http://www.w3.org/2000/svg" width="180" height="180" viewBox="0 0 180 180" fill="none">
  <rect width="180" height="180" rx="32" fill="#F5FAFF"></rect>
  <path d="M47.1079 89.9987C47.1079 106.978 56.9746 121.649 71.2822 128.603L50.8215 72.5424C48.3687 78.0349 47.1033 83.9834 47.1079 89.9987V89.9987ZM118.957 87.8342C118.957 82.5332 117.053 78.862 115.42 76.0046C113.246 72.4714 111.209 69.4793 111.209 65.9461C111.209 62.0032 114.198 58.3328 118.41 58.3328C118.601 58.3328 118.781 58.3565 118.967 58.3671C111.335 51.3758 101.168 47.1072 90.0011 47.1072C75.0161 47.1072 61.8325 54.7955 54.1629 66.4407C55.1693 66.4709 56.1185 66.4913 56.9232 66.4913C61.4097 66.4913 68.3545 65.9469 68.3545 65.9469C70.6668 65.8106 70.9394 69.2067 68.6304 69.4801C68.6304 69.4801 66.3059 69.7535 63.7203 69.889L79.3402 116.35L88.7278 88.1974L82.0442 69.8882C79.7344 69.7527 77.5463 69.4793 77.5463 69.4793C75.2349 69.3438 75.5058 65.8098 77.8172 65.9461C77.8172 65.9461 84.9008 66.4905 89.1155 66.4905C93.6012 66.4905 100.547 65.9461 100.547 65.9461C102.861 65.8098 103.132 69.2059 100.822 69.4793C100.822 69.4793 98.4934 69.7527 95.9126 69.8882L111.413 115.997L115.691 101.7C117.546 95.7674 118.957 91.5062 118.957 87.8342V87.8342Z" fill="#00749A"></path>
  <path d="M90.7532 93.7507L77.8838 131.146C81.8183 132.306 85.8989 132.894 90.0007 132.894C94.9957 132.894 99.7858 132.03 104.245 130.463C104.125 130.276 104.023 130.078 103.939 129.872L90.7532 93.7507ZM127.638 69.4198C127.822 70.7861 127.927 72.2536 127.927 73.8304C127.927 78.183 127.114 83.076 124.665 89.194L111.563 127.075C124.315 119.639 132.892 105.824 132.892 89.9988C132.904 82.8058 131.096 75.7268 127.638 69.4198V69.4198Z" fill="#00749A"></path>
  <path d="M90.001 40C62.4314 40 40.0005 62.4292 40.0005 89.9988C40.0005 117.572 62.4306 140.001 90.001 140.001C117.57 140.001 140.004 117.572 140.004 89.9988C140.003 62.4292 117.57 40 90.001 40ZM90.001 137.708C63.6957 137.708 42.2931 116.306 42.2931 89.9988C42.2931 63.6943 63.6948 42.2934 90.001 42.2934C116.305 42.2934 137.706 63.6943 137.706 89.9988C137.706 116.306 116.305 137.708 90.001 137.708Z" fill="#00749A"></path>
</svg>
