<?xml version="1.0" encoding="UTF-8"?>
<svg xmlns="http://www.w3.org/2000/svg" width="180" height="180" viewBox="0 0 180 180" fill="none">
  <rect width="180" height="180" rx="32" fill="#F5FAFF"></rect>
  <path d="M122.26 60.7731C122.193 60.2886 121.769 60.0204 121.418 59.9908C118.831 59.7964 116.244 59.6036 113.657 59.4123C113.657 59.4123 108.51 54.3026 107.945 53.737C107.38 53.1717 106.276 53.3437 105.848 53.4698C105.784 53.4884 104.723 53.816 102.967 54.3593C101.248 49.4119 98.2136 44.8654 92.8755 44.8654C92.7281 44.8654 92.5765 44.8714 92.4248 44.88C90.9066 42.8723 89.026 42 87.4017 42C74.9667 42 69.0258 57.545 67.1631 65.4444C62.3312 66.9417 58.8986 68.0061 58.4601 68.1439C55.763 68.9899 55.6777 69.0749 55.3236 71.6163C55.0571 73.5404 48 128.116 48 128.116L102.99 138.419L132.786 131.973C132.786 131.973 122.326 61.2577 122.26 60.7731ZM99.9279 55.2993L95.2749 56.7394C95.2765 56.4115 95.2782 56.0889 95.2782 55.7361C95.2782 52.6613 94.8514 50.1856 94.1666 48.223C96.9172 48.5682 98.749 51.6977 99.9279 55.2993ZM90.7546 48.8327C91.5193 50.7488 92.0165 53.4987 92.0165 57.2094C92.0165 57.3993 92.0149 57.5729 92.0132 57.7484C88.9872 58.6858 85.699 59.7034 82.4034 60.7244C84.2538 53.583 87.7223 50.1338 90.7546 48.8327ZM87.0601 45.3354C87.5968 45.3354 88.1375 45.5176 88.6549 45.8737C84.6697 47.749 80.398 52.4721 78.5941 61.904L70.998 64.2565C73.111 57.0624 78.1284 45.3354 87.0601 45.3354Z" fill="#95BF46"></path>
  <path d="M121.418 59.9908C118.832 59.7964 116.245 59.6036 113.657 59.4123C113.657 59.4123 108.51 54.3025 107.946 53.737C107.734 53.5265 107.449 53.4187 107.151 53.3722L102.993 138.418L132.786 131.973C132.786 131.973 122.326 61.2577 122.261 60.7731C122.194 60.2885 121.769 60.0203 121.418 59.9908Z" fill="#5E8E3E"></path>
  <path d="M92.8752 76.4542L89.2013 87.3827C89.2013 87.3827 85.9824 85.6647 82.0367 85.6647C76.2521 85.6647 75.9611 89.2948 75.9611 90.2096C75.9611 95.2008 88.9719 97.1133 88.9719 108.804C88.9719 118.003 83.1379 123.926 75.2717 123.926C65.8322 123.926 61.0049 118.051 61.0049 118.051L63.5324 109.7C63.5324 109.7 68.4944 113.96 72.6815 113.96C75.4174 113.96 76.5303 111.806 76.5303 110.232C76.5303 103.721 65.8561 103.431 65.8561 92.7324C65.8561 83.728 72.319 75.0144 85.3651 75.0144C90.3918 75.0144 92.8752 76.4542 92.8752 76.4542Z" fill="white"></path>
</svg>
