<?xml version="1.0" encoding="UTF-8"?>
<svg xmlns="http://www.w3.org/2000/svg" width="181" height="180" viewBox="0 0 181 180" fill="none">
  <rect x="1.11963" y="0.5" width="179" height="179" rx="31.5" fill="#F5FAFF"></rect>
  <rect x="1.11963" y="0.5" width="179" height="179" rx="31.5" stroke="white"></rect>
  <path d="M135.088 40L127.055 129.99L90.9461 140L54.937 130.004L46.9126 40H135.088Z" fill="#264DE4"></path>
  <path d="M120.177 124.259L127.042 47.3591H91V132.348L120.177 124.259Z" fill="#2965F1"></path>
  <path d="M65.3086 80.7402L66.2979 91.7787H91.0002V80.7402H65.3086Z" fill="#EBEBEB"></path>
  <path d="M90.9998 58.3977H90.9617H63.3203L64.3238 69.4364H90.9998V58.3977Z" fill="#EBEBEB"></path>
  <path d="M91 120.893V109.408L90.9516 109.421L78.6579 106.102L77.872 97.2979H71.8982H66.791L68.3375 114.63L90.9492 120.907L91 120.893Z" fill="#EBEBEB"></path>
  <path d="M104.555 91.7785L103.273 106.095L90.9619 109.418V120.902L113.592 114.63L113.758 112.765L116.352 83.7042L116.621 80.7401L118.614 58.3977H90.9619V69.4364H106.516L105.512 80.7401H90.9619V91.7785H104.555Z" fill="white"></path>
</svg>
