<?xml version="1.0" encoding="UTF-8"?>
<svg xmlns="http://www.w3.org/2000/svg" width="180" height="180" viewBox="0 0 180 180" fill="none">
  <rect x="0.5" y="0.5" width="179" height="179" rx="31.5" fill="#F5FAFF"></rect>
  <rect x="0.5" y="0.5" width="179" height="179" rx="31.5" stroke="white"></rect>
  <path d="M53.9281 130.034L45.9067 40H134.093L126.072 129.985L89.9272 140" fill="#E44D26"></path>
  <path d="M90 132.344V47.3901H126.048L119.169 124.201" fill="#F16529"></path>
  <path d="M62.29 58.4009H90.0003V69.4364H74.395L75.416 80.7392H90.0003V91.7504H65.3041L62.29 58.4009ZM65.7903 97.2925H76.8744L77.6522 106.116L90.0003 109.422V120.943L67.3459 114.624" fill="#EBEBEB"></path>
  <path d="M117.613 58.4009H89.9512V69.4364H116.592L117.613 58.4009ZM115.595 80.7392H89.9512V91.7747H103.563L102.275 106.116L89.9512 109.422V120.895L112.557 114.624" fill="white"></path>
</svg>
