<?xml version="1.0" encoding="UTF-8"?>
<svg xmlns="http://www.w3.org/2000/svg" width="181" height="181" viewBox="0 0 181 181" fill="none">
  <rect x="0.447754" y="0.405762" width="180" height="180" rx="32" fill="#F5FAFF"></rect>
  <path d="M138.133 62.8158C138.169 62.9483 138.187 63.0849 138.188 63.2222V84.5563C138.188 84.8301 138.115 85.0991 137.978 85.3361C137.841 85.573 137.643 85.7695 137.406 85.9057L119.5 96.215V116.649C119.5 117.205 119.204 117.718 118.722 117.998L81.3446 139.515C81.259 139.564 81.1657 139.595 81.0724 139.628C81.0374 139.64 81.0043 139.661 80.9674 139.671C80.7061 139.74 80.4314 139.74 80.1702 139.671C80.1274 139.659 80.0885 139.636 80.0477 139.62C79.9621 139.589 79.8727 139.562 79.791 139.515L42.4213 117.998C42.1839 117.862 41.9866 117.665 41.8494 117.428C41.7122 117.192 41.6398 116.923 41.6396 116.649V52.6465C41.6396 52.5065 41.6591 52.3704 41.6941 52.2382C41.7058 52.1934 41.733 52.1526 41.7485 52.1079C41.7777 52.0262 41.8049 51.9426 41.8477 51.8668C41.8769 51.8162 41.9196 51.7754 41.9546 51.7287C41.9994 51.6665 42.0402 51.6023 42.0927 51.5479C42.1374 51.5032 42.1958 51.4701 42.2463 51.4312C42.3027 51.3846 42.3532 51.334 42.4174 51.2971H42.4194L61.1052 40.5386C61.3418 40.4025 61.61 40.3308 61.8829 40.3308C62.1559 40.3308 62.4241 40.4025 62.6607 40.5386L81.3465 51.2971H81.3504C81.4126 51.336 81.4651 51.3846 81.5215 51.4293C81.5721 51.4682 81.6285 51.5032 81.6732 51.546C81.7276 51.6023 81.7665 51.6665 81.8132 51.7287C81.8463 51.7754 81.891 51.8162 81.9182 51.8668C81.9629 51.9446 81.9882 52.0262 82.0193 52.1079C82.0349 52.1526 82.0621 52.1934 82.0737 52.2401C82.1095 52.3726 82.1279 52.5092 82.1282 52.6465V92.6218L97.6991 83.656V63.2202C97.6991 63.0841 97.7185 62.9461 97.7535 62.8158C97.7671 62.7691 97.7924 62.7283 97.8079 62.6836C97.8391 62.6019 97.8663 62.5183 97.9091 62.4425C97.9382 62.3919 97.981 62.3511 98.0141 62.3044C98.0607 62.2422 98.0996 62.178 98.1541 62.1236C98.1988 62.0789 98.2552 62.0458 98.3057 62.0069C98.3641 61.9603 98.4146 61.9097 98.4768 61.8728H98.4788L117.167 51.1143C117.403 50.978 117.671 50.9062 117.944 50.9062C118.217 50.9062 118.486 50.978 118.722 51.1143L137.408 61.8728C137.474 61.9116 137.525 61.9603 137.583 62.005C137.632 62.0439 137.688 62.0789 137.733 62.1216C137.787 62.178 137.826 62.2422 137.873 62.3044C137.908 62.3511 137.95 62.3919 137.978 62.4425C138.022 62.5183 138.048 62.6019 138.079 62.6836C138.096 62.7283 138.121 62.7691 138.133 62.8158V62.8158ZM135.073 83.656V65.9152L128.534 69.6796L119.5 74.8809V92.6218L135.075 83.656H135.073ZM116.387 115.749V97.9961L107.501 103.071L82.1262 117.553V135.473L116.387 115.749ZM44.7546 55.3395V115.749L79.0113 135.471V117.555L61.1149 107.427L61.1091 107.423L61.1013 107.419C61.041 107.384 60.9905 107.333 60.9341 107.29C60.8855 107.252 60.8291 107.22 60.7863 107.178L60.7824 107.172C60.7319 107.123 60.6969 107.063 60.6541 107.008C60.6152 106.956 60.5685 106.911 60.5374 106.857L60.5355 106.851C60.5005 106.793 60.4791 106.723 60.4538 106.657C60.4285 106.598 60.3955 106.544 60.3799 106.482V106.48C60.3605 106.406 60.3566 106.328 60.3488 106.252C60.341 106.194 60.3255 106.135 60.3255 106.077V64.3052L51.2937 59.102L44.7546 55.3415V55.3395ZM61.8849 43.6847L46.316 52.6465L61.881 61.6083L77.448 52.6446L61.881 43.6847H61.8849ZM69.9814 99.6139L79.0132 94.4145V55.3395L72.4742 59.1039L63.4404 64.3052V103.38L69.9814 99.6139ZM117.944 54.2604L102.377 63.2222L117.944 72.184L133.509 63.2202L117.944 54.2604ZM116.387 74.8809L107.353 69.6796L100.814 65.9152V83.656L109.846 88.8554L116.387 92.6218V74.8809ZM80.5668 114.86L103.4 101.825L114.814 95.3109L99.2585 86.3549L81.3485 96.6661L65.0251 106.064L80.5668 114.86Z" fill="#FF2D20"></path>
</svg>
