<?xml version="1.0" encoding="UTF-8"?>
<svg xmlns="http://www.w3.org/2000/svg" width="180" height="180" viewBox="0 0 180 180" fill="none">
  <rect width="180" height="180" rx="32" fill="#F5FAFF"></rect>
  <path d="M63.25 63.25L90.5 90.5L63.25 117.75L36 90.5L63.25 63.25Z" fill="#C8FFB3"></path>
  <path d="M117.75 63.25L145 90.5L117.75 117.75L90.5 90.5L117.75 63.25Z" fill="#D3F5FF"></path>
  <path d="M90.5 36L117.75 63.25L90.5 90.5L63.25 63.25L90.5 36Z" fill="#E1FFD0"></path>
  <path d="M90.5 90.5L117.75 117.75L90.5 145L63.25 117.75L90.5 90.5Z" fill="#E0F8FF"></path>
  <path d="M113.921 95.2572C113.046 95.2572 112.292 95.06 111.658 94.6657C111.029 94.2713 110.543 93.7083 110.2 92.9768C109.857 92.2452 109.686 91.3765 109.686 90.3706C109.686 89.3589 109.854 88.4874 110.192 87.7558C110.535 87.0242 111.02 86.4641 111.649 86.0755C112.283 85.6811 113.041 85.4839 113.921 85.4839C114.807 85.4839 115.564 85.684 116.193 86.084C116.821 86.4841 117.302 87.0642 117.633 87.8244C117.97 88.5845 118.139 89.5018 118.139 90.5763H117.367V90.3363C117.333 89.0046 117.019 87.9844 116.424 87.2757C115.836 86.5613 115.001 86.2041 113.921 86.2041C112.824 86.2041 111.972 86.5699 111.366 87.3014C110.76 88.0273 110.457 89.0503 110.457 90.3706C110.457 91.6908 110.76 92.7167 111.366 93.4483C111.972 94.1741 112.824 94.5371 113.921 94.5371C114.687 94.5371 115.358 94.357 115.936 93.997C116.513 93.6369 116.973 93.1196 117.316 92.4452L117.916 92.7882C117.539 93.5769 117.004 94.1856 116.313 94.6142C115.621 95.0429 114.824 95.2572 113.921 95.2572ZM110.149 90.5763V89.8562H117.693V90.5763H110.149ZM118.665 95L122.438 90.3191L118.751 85.7411H119.643L122.866 89.7876L126.073 85.7411H126.964L123.278 90.3191L127.05 95H126.141L122.866 90.8507L119.574 95H118.665Z" fill="black"></path>
  <path d="M90.5001 119.977C91.5716 119.977 92.4402 119.108 92.4402 118.037C92.4402 116.965 91.5716 116.096 90.5001 116.096C89.4287 116.096 88.5601 116.965 88.5601 118.037C88.5601 119.108 89.4287 119.977 90.5001 119.977Z" fill="#61DAFB"></path>
  <path d="M90.5 122.012C96.2493 122.012 100.91 120.233 100.91 118.038C100.91 115.842 96.2493 114.063 90.5 114.063C84.7506 114.063 80.0898 115.842 80.0898 118.038C80.0898 120.233 84.7506 122.012 90.5 122.012Z" stroke="#61DAFB" stroke-width="1.10028"></path>
  <path d="M87.0583 120.025C89.933 125.004 93.8046 128.15 95.7057 127.053C97.6068 125.955 96.8175 121.029 93.9428 116.05C91.0682 111.071 87.1966 107.924 85.2955 109.022C83.3944 110.119 84.1837 115.046 87.0583 120.025Z" stroke="#61DAFB" stroke-width="1.10028"></path>
  <path d="M87.0584 116.049C84.1837 121.028 83.3945 125.954 85.2956 127.052C87.1967 128.149 91.0682 125.003 93.9429 120.024C96.8176 115.045 97.6068 110.119 95.7057 109.021C93.8046 107.923 89.9331 111.07 87.0584 116.049Z" stroke="#61DAFB" stroke-width="1.10028"></path>
  <path d="M62.6167 79.11C63.1856 78.7844 63.9266 78.7829 64.495 79.11C67.3546 80.7258 70.2151 82.3391 73.0742 83.9559C73.6119 84.2588 73.9716 84.8573 73.9662 85.4769V95.1983C73.9702 95.8436 73.5749 96.4564 73.0076 96.7524C70.1574 98.3593 67.3087 99.9682 64.459 101.575C63.8783 101.907 63.1225 101.882 62.5599 101.522C61.7055 101.027 60.8495 100.534 59.9949 100.039C59.8203 99.9351 59.6235 99.8522 59.5002 99.6829C59.6092 99.536 59.804 99.5177 59.9624 99.4535C60.3191 99.3401 60.6467 99.1581 60.9744 98.9814C61.0572 98.9247 61.1584 98.9464 61.2378 98.9972C61.9685 99.4161 62.6927 99.8472 63.4259 100.262C63.5823 100.352 63.7406 100.233 63.8743 100.158C66.6712 98.5773 69.4716 97.0025 72.268 95.4213C72.3716 95.3714 72.4289 95.2614 72.4205 95.1479C72.4224 91.9411 72.4209 88.7336 72.4214 85.5268C72.4333 85.398 72.3588 85.2796 72.2423 85.2269C69.402 83.6273 66.5632 82.0253 63.7234 80.4254C63.6742 80.3915 63.6159 80.3734 63.5562 80.3733C63.4965 80.3732 63.4381 80.3912 63.3888 80.4249C60.549 82.0253 57.7107 83.6288 54.8709 85.2283C54.7549 85.2811 54.677 85.3975 54.6908 85.5268C54.6913 88.7336 54.6908 91.9411 54.6908 95.1484C54.6859 95.2038 54.698 95.2594 54.7256 95.3076C54.7533 95.3559 54.795 95.3945 54.8452 95.4183C55.603 95.8481 56.3618 96.2748 57.1201 96.703C57.5474 96.933 58.0719 97.0696 58.5425 96.8934C58.9579 96.7445 59.249 96.3206 59.2411 95.8796C59.245 92.6915 59.2392 89.5028 59.2441 86.3151C59.2337 86.1736 59.3679 86.0567 59.5055 86.07C59.8697 86.0676 60.2343 86.0651 60.5984 86.071C60.7504 86.0676 60.855 86.22 60.8362 86.3625C60.8347 89.5709 60.8401 92.7793 60.8337 95.9876C60.8347 96.8427 60.4834 97.7731 59.6925 98.1915C58.7181 98.6962 57.5138 98.5892 56.5513 98.1052C55.7179 97.6893 54.9227 97.1984 54.1042 96.7528C53.5354 96.4584 53.1421 95.8432 53.1461 95.1984V85.4769C53.1401 84.8445 53.5141 84.2351 54.0686 83.9366C56.9183 82.3284 59.7675 80.719 62.6167 79.11Z" fill="#8CC84B"></path>
  <path d="M65.1019 85.8442C66.3448 85.7642 67.6753 85.7968 68.7937 86.4091C69.6597 86.8783 70.1397 87.863 70.155 88.825C70.1308 88.9548 69.9952 89.0264 69.8713 89.0175C69.5107 89.017 69.15 89.0224 68.7894 89.015C68.6364 89.0209 68.5475 88.8799 68.5283 88.7446C68.4247 88.2843 68.1737 87.8285 67.7404 87.6064C67.0754 87.2734 66.3042 87.2902 65.579 87.2971C65.0496 87.3253 64.4803 87.3711 64.0318 87.6824C63.6874 87.9183 63.5828 88.3943 63.7057 88.7777C63.8216 89.053 64.1394 89.1418 64.3994 89.2237C65.8972 89.6155 67.4844 89.5765 68.9536 90.092C69.5619 90.3022 70.157 90.7108 70.3652 91.3476C70.6375 92.2012 70.5181 93.2215 69.9108 93.9068C69.4184 94.4707 68.7011 94.7776 67.9857 94.9443C67.0339 95.1565 66.0463 95.1619 65.0797 95.0677C64.1709 94.9641 63.2252 94.7253 62.5236 94.1061C61.9236 93.5851 61.6306 92.7735 61.6597 91.9901C61.6666 91.8578 61.7984 91.7655 61.9251 91.7764C62.2882 91.7734 62.6514 91.7725 63.0145 91.7769C63.1595 91.7665 63.2671 91.8918 63.2745 92.0286C63.3415 92.4671 63.5063 92.9274 63.8888 93.1874C64.6268 93.6636 65.5529 93.631 66.398 93.6443C67.0981 93.6132 67.884 93.6038 68.4554 93.1411C68.7568 92.8772 68.8461 92.4356 68.7646 92.0557C68.6764 91.735 68.3409 91.5855 68.0528 91.4878C66.5741 91.02 64.9692 91.1898 63.5049 90.6608C62.9104 90.4507 62.3355 90.0535 62.1072 89.4428C61.7885 88.5784 61.9345 87.5093 62.6054 86.8471C63.2596 86.1885 64.204 85.9349 65.1019 85.8441V85.8442Z" fill="#8CC84B"></path>
  <path d="M90.3893 45.8943L91.3352 47.6709C91.5479 47.9988 91.7783 48.2889 92.0496 48.5592C92.8452 49.3449 93.5868 50.1834 94.2693 51.0691C95.872 53.1735 96.953 55.5106 97.725 58.0382C98.188 59.5822 98.4395 61.166 98.4583 62.7677C98.5358 67.5559 96.8943 71.6673 93.5848 75.0843C93.0464 75.6262 92.4649 76.1233 91.8458 76.5707C91.518 76.5707 91.3629 76.3193 91.2278 76.0878C90.9817 75.6585 90.8179 75.1871 90.7448 74.6977C90.6285 74.1185 90.5521 73.5392 90.5898 72.9411V72.6708C90.5632 72.6132 90.2741 46.0305 90.3893 45.8943V45.8943Z" fill="#599636"></path>
  <path d="M90.3893 45.836C90.3505 45.7584 90.3118 45.8171 90.273 45.8548C90.2918 46.2425 90.1567 46.588 89.9451 46.9181C89.7125 47.2459 89.4046 47.4974 89.0956 47.7676C87.3788 49.2541 86.0275 51.0495 84.9454 53.0576C83.5055 55.7602 82.7634 58.6566 82.5529 61.7058C82.4566 62.8057 82.9007 66.6868 83.2474 67.8066C84.1933 70.7794 85.8924 73.2704 88.0932 75.4325C88.6337 75.9531 89.2119 76.436 89.81 76.9001C89.9839 76.9001 90.0027 76.745 90.0426 76.6298C90.1189 76.3833 90.177 76.1316 90.2165 75.8766L90.6042 72.9813L90.3893 45.836Z" fill="#6CAC48"></path>
  <path d="M91.3352 77.7474C91.374 77.3043 91.5867 76.9366 91.8182 76.57C91.5856 76.4736 91.4128 76.282 91.2776 76.0682C91.1611 75.8658 91.0647 75.6525 90.9897 75.4313C90.7194 74.6206 90.6618 73.7699 90.5843 72.9414V72.4397C90.4879 72.5172 90.468 73.1729 90.468 73.2704C90.4116 74.1461 90.2954 75.0168 90.1202 75.8766C90.0626 76.2244 90.0238 76.5711 89.8101 76.8801C89.8101 76.9189 89.8101 76.9576 89.8289 77.0152C90.1767 78.0387 90.2719 79.0809 90.3306 80.1431V80.5308C90.3306 80.9938 90.3118 80.8963 90.6962 81.0513C90.8512 81.1089 91.024 81.1289 91.1791 81.2441C91.2954 81.2441 91.3142 81.1477 91.3142 81.0702L91.2566 80.4333V78.6567C91.2378 78.3466 91.2954 78.0387 91.3341 77.7485L91.3352 77.7474Z" fill="#6CAC48"></path>
</svg>
