<?xml version="1.0" encoding="UTF-8"?>
<svg xmlns="http://www.w3.org/2000/svg" width="180" height="180" viewBox="0 0 180 180" fill="none">
  <rect width="180" height="180" rx="32" fill="#F5FAFF"></rect>
  <path d="M64.3718 104.019L68.2919 116.739C69.1727 119.627 69.54 121.643 69.3929 122.792C71.5368 117.05 73.0348 110.792 73.8871 104.019H78.6007C76.574 115.045 73.9007 123.058 70.5825 128.056C67.9972 131.908 65.1649 133.834 62.0808 133.834C61.2585 133.834 60.2447 133.585 59.0417 133.092V130.434C59.6295 130.52 60.319 130.567 61.1121 130.567C62.5509 130.567 63.7105 130.168 64.5928 129.372C65.6491 128.402 66.178 127.312 66.178 126.104C66.178 125.279 65.7655 123.587 64.9445 121.026L59.4826 104.019H64.3718ZM34.37 96.2017L41.55 118.109H41.5944L48.8185 96.2017H54.7208C56.0132 107.066 56.7766 117.007 57.0109 126.017H52.0347C51.8596 117.594 51.3746 109.674 50.5816 102.255H50.5382L42.9606 126.017H39.171L31.6393 102.255H31.5949C31.0361 109.38 30.6844 117.3 30.5378 126.017H26C26.2932 115.416 27.0271 105.478 28.2016 96.2017H34.37Z" fill="#00758F"></path>
  <path d="M114.806 95.7595C122.529 95.7595 126.391 100.694 126.391 110.558C126.391 115.918 125.23 119.967 122.909 122.702C122.491 123.202 122.029 123.634 121.542 124.034L127.008 126.736L127.002 126.736L125.062 130.087L117.944 125.934C116.764 126.283 115.466 126.458 114.051 126.458C110.259 126.458 107.426 125.353 105.553 123.145C103.497 120.703 102.47 116.858 102.47 111.617C102.47 106.288 103.63 102.254 105.951 99.5153C108.065 97.0101 111.017 95.7595 114.806 95.7595ZM91.1543 95.8029C93.9147 95.8029 96.4247 96.5415 98.6856 98.0136L97.5373 100.572C95.6027 99.7501 93.6953 99.3372 91.8144 99.3372C90.2882 99.3372 89.1121 99.7045 88.2924 100.444C87.468 101.176 86.9581 102.119 86.9581 103.268C86.9581 105.034 88.2163 106.566 90.5393 107.86C91.3004 108.276 92.0588 108.697 92.8145 109.122L92.9879 109.22L93.0748 109.269L93.2484 109.366L93.335 109.415L93.5084 109.513C95.2669 110.504 96.9215 111.45 96.9215 111.45C99.2444 113.099 100.402 114.857 100.402 117.753C100.402 120.281 99.4756 122.357 97.6285 123.981C95.78 125.598 93.2967 126.409 90.1869 126.409C87.2783 126.409 84.4594 125.476 81.729 123.625L83.0063 121.064C85.3561 122.242 87.4824 122.83 89.3918 122.83C91.1825 122.83 92.5843 122.43 93.5983 121.641C94.6103 120.845 95.2167 119.736 95.2167 118.329C95.2167 116.559 93.9853 115.046 91.7262 113.776C91.0191 113.386 90.3141 112.991 89.6112 112.593L89.4381 112.495C89.1202 112.315 88.8 112.133 88.4863 111.955L88.3163 111.859C86.7908 110.991 85.472 110.233 85.472 110.233C83.2136 108.581 82.0812 106.809 82.0812 103.888C82.0812 101.473 82.9257 99.5206 84.6121 98.0355C86.3026 96.5471 88.4836 95.8029 91.1543 95.8029ZM135.468 96.2019V122.349H144.849V126.017H130.71V96.2019H135.468ZM150.062 122.361V122.981H149.031V126.014H148.242V122.981H147.171V122.361H150.063H150.062ZM151.967 122.361L152.957 124.851L153.867 122.361H154.985V126.014H154.242V123.234L153.206 126.014H152.67L151.633 123.234H151.593V126.014H150.89V122.361H151.967H151.967ZM114.32 99.4262C109.769 99.4262 107.492 103.182 107.492 110.69C107.492 114.991 108.095 118.109 109.299 120.053C110.415 121.851 112.162 122.749 114.541 122.749C119.093 122.749 121.369 118.964 121.369 111.396C121.369 107.156 120.766 104.064 119.563 102.119C118.446 100.325 116.7 99.4262 114.32 99.4262H114.32Z" fill="#F29111"></path>
  <path d="M102.39 47.8474C103.9 44.1375 109.179 46.947 111.228 48.243C111.73 48.5672 112.306 49.2522 112.882 49.5054C113.78 49.5407 114.677 49.611 115.577 49.6485C117.264 50.045 118.845 50.369 120.175 51.1263C126.354 54.7655 130.377 58.474 134.079 64.5994C134.87 65.8969 135.265 67.3009 135.911 68.7049C136.808 70.7977 137.816 72.9946 138.857 74.9735C139.323 75.9117 139.684 76.955 140.331 77.7473C140.584 78.1096 141.301 78.2164 141.73 78.4328C142.916 79.0468 144.354 79.5128 145.469 80.2334C147.552 81.5323 149.566 83.0802 151.398 84.6649C152.08 85.2766 152.545 86.1425 153.195 86.7894V87.1159C152.618 87.293 152.043 87.4744 151.467 87.6198C150.21 87.9428 149.096 87.8697 147.876 88.1929C147.122 88.4116 146.187 88.7001 145.396 88.7734L145.469 88.8469C145.934 90.1759 148.45 91.2567 149.601 92.0515C150.999 93.0603 152.294 94.2836 153.337 95.6887C153.697 96.0472 154.057 96.3734 154.415 96.7309C154.665 97.0932 154.736 97.5618 154.989 97.8848V97.9941C154.709 97.8951 154.507 97.7062 154.316 97.5086L154.202 97.3895C154.087 97.2711 153.972 97.1547 153.841 97.0587C153.048 96.517 152.26 95.8691 151.467 95.3655C150.104 94.5003 148.522 93.9982 147.122 93.1298C146.331 92.6257 145.576 92.0515 144.822 91.4746C144.138 90.969 143.385 89.998 142.955 89.2775C142.702 88.8794 142.667 88.4116 142.378 88.1236C142.429 87.6427 142.87 87.4999 143.315 87.3825L143.417 87.3555C143.57 87.3157 143.72 87.2759 143.851 87.2232C145.719 86.4302 147.946 86.1424 150.822 86.2145C150.713 85.4925 148.917 84.5928 148.343 84.1605C147.192 83.3306 145.972 82.4647 144.751 81.7094C144.104 81.3139 142.989 81.0252 142.272 80.702C141.301 80.3054 139.145 79.9091 138.607 79.1538C137.694 77.9632 137.038 76.5431 136.401 75.1086L136.228 74.7171C136.17 74.5866 136.112 74.4562 136.054 74.3258C135.301 72.5983 134.366 70.7972 133.612 69.0284C133.217 68.1655 133.036 67.4082 132.604 66.5806C129.982 61.5022 126.101 57.2503 121.397 54.2601C119.851 53.2872 118.127 52.3868 116.223 51.7748C115.145 51.4491 113.851 51.6292 112.701 51.3793H111.945C111.3 51.1974 110.761 50.5131 110.257 50.1524C109.145 49.3971 108.031 48.8899 106.701 48.3511C106.235 48.1349 104.904 47.6315 104.439 48.0278C104.151 48.1001 104.005 48.2087 103.935 48.4974C103.649 48.9282 103.9 49.5772 104.078 49.9745C104.618 51.1258 105.372 51.8101 106.056 52.783C106.665 53.6459 107.421 54.6189 107.852 55.5571C108.783 57.5738 109.217 59.8082 110.08 61.8247C110.4 62.583 110.906 63.4458 111.372 64.1298C111.767 64.6728 112.484 65.0653 112.701 65.7525C113.134 66.4731 112.053 68.8506 111.803 69.6056C110.867 72.56 111.049 76.6668 112.127 79.2277L112.184 79.3627L112.241 79.4995C112.635 80.4374 113.056 81.4474 114.102 81.7097C114.175 81.6381 114.102 81.6757 114.245 81.6381C114.498 79.6559 114.57 77.747 115.253 76.1962C115.648 75.2265 116.436 74.541 116.976 73.7494C117.337 73.965 117.337 74.6153 117.551 75.0456C118.019 76.1616 118.521 77.3853 119.098 78.5046C120.281 80.8098 121.612 83.0447 123.12 85.0612C123.625 85.7814 124.342 86.5743 124.988 87.223C125.276 87.4742 125.599 87.6193 125.815 87.9425H125.886V88.0513C124.808 87.654 124.125 86.539 123.265 85.888C121.647 84.6644 119.709 82.8268 118.593 81.0635C118.127 80.0512 117.622 79.081 117.119 78.0738V78.001C116.904 78.2887 116.976 78.5744 116.869 79.0097C116.402 80.8098 116.762 82.8633 115.145 83.5108C113.312 84.2691 111.945 82.2871 111.372 81.3865C109.539 78.397 109.037 73.3538 110.329 69.2829C110.616 68.3817 110.656 67.3009 111.157 66.5814C111.049 65.9309 110.547 65.753 110.257 65.3545C109.754 64.6733 109.324 63.8797 108.93 63.1231C108.174 61.6453 107.636 59.8795 107.061 58.2946C106.809 57.6474 106.737 56.9976 106.485 56.3849C106.056 55.4498 105.264 54.5116 104.654 53.6842C103.827 52.4951 101.42 50.1904 102.39 47.8474ZM114.174 54.9053C114.27 55.0016 114.386 55.0857 114.506 55.1686L114.65 55.2679C114.843 55.4014 115.03 55.542 115.144 55.7334C115.325 55.9869 115.359 56.237 115.576 56.491C115.576 57.3569 115.325 57.9326 114.819 58.2913C114.819 58.2913 114.784 58.3291 114.749 58.3644C114.461 57.7872 114.21 57.213 113.921 56.6364C113.564 56.133 113.061 55.7337 112.77 55.1585H112.701V55.0862C113.134 54.9791 113.564 54.9053 114.174 54.9053Z" fill="#00758F"></path>
</svg>
