<?xml version="1.0" encoding="UTF-8"?>
<svg xmlns="http://www.w3.org/2000/svg" width="181" height="181" viewBox="0 0 181 181" fill="none">
  <rect x="0.447754" y="0.405762" width="180" height="180" rx="32" fill="#F5FAFF"></rect>
  <g clip-path="url(#clip0_910_107221)">
    <path d="M138.105 99.9002C137.805 99.0245 137.264 98.2512 136.544 97.6692C135.824 97.0872 134.954 96.7202 134.035 96.6102C132.949 96.4783 131.849 96.5392 130.785 96.7902C129.141 97.1588 127.468 97.3797 125.785 97.4502C130.287 89.8241 133.726 81.6181 136.005 73.0602C139.395 59.8802 137.585 53.8802 135.465 51.1702C129.855 44.0002 121.635 40.1202 111.805 40.0002C107.642 39.9629 103.496 40.546 99.5049 41.7302C97.1263 41.3187 94.7186 41.098 92.3049 41.0702C87.9193 40.9002 83.5752 41.975 79.7749 44.1702C76.8943 43.1858 73.9377 42.44 70.9349 41.9402C62.2749 40.5102 55.3049 41.6202 50.2049 45.2402C44.0349 49.6102 41.2049 57.2402 41.6949 67.8302C41.8649 71.2002 43.7449 81.4502 46.6949 91.1802C48.0703 95.9417 49.8778 100.568 52.0949 105C54.7549 110 57.6049 113 60.8049 114.1C62.2523 114.578 63.8014 114.66 65.291 114.336C66.7806 114.013 68.1562 113.296 69.2749 112.26C69.7836 112.864 70.3843 113.384 71.0549 113.8C72.0969 114.44 73.2297 114.919 74.4149 115.22C78.3041 116.304 82.4443 116.054 86.1749 114.51C86.1749 115.13 86.1749 115.71 86.2249 116.22C86.2249 117.04 86.2249 117.84 86.2949 118.59C86.5049 123.67 86.8449 127.59 87.8649 130.38C87.9249 130.53 87.9949 130.77 88.0749 131.01C88.7097 133.351 89.9356 135.49 91.6349 137.22C93.6496 139.081 96.3132 140.079 99.0549 140C100.225 139.995 101.392 139.864 102.535 139.61C106.245 138.81 110.475 137.61 113.535 133.23C116.425 129.11 117.835 122.89 118.085 113.11C118.085 112.83 118.155 112.56 118.175 112.31L118.245 111.8L118.925 111.86H119.095C122.952 112.011 126.795 111.329 130.365 109.86C132.605 108.86 139.815 105 138.115 99.8602" fill="black"></path>
    <path d="M131.635 100.9C120.375 103.23 119.635 99.4102 119.635 99.4102C131.525 81.7102 136.495 59.2502 132.205 53.7502C120.505 38.7502 100.205 45.8502 99.9047 46.0302H99.7947C97.3182 45.5334 94.8003 45.2722 92.2747 45.2502C88.0023 45.03 83.7859 46.2988 80.3447 48.8402C80.3447 48.8402 44.1947 33.9102 45.8747 67.6202C46.2347 74.7902 56.1247 121.88 67.8747 107.62C72.1947 102.42 76.3547 98.0202 76.3547 98.0202C78.4537 99.4408 80.9812 100.088 83.5047 99.8502L83.7047 99.6802C83.6501 100.348 83.6769 101.019 83.7847 101.68C80.7847 105.09 81.6347 105.68 75.5647 106.94C69.4947 108.2 73.0247 110.47 75.3847 111.06C78.2447 111.78 84.8547 112.8 89.3247 106.52L89.1447 107.24C90.3347 108.24 91.1447 113.46 91.0347 118.24C90.9247 123.02 90.8047 126.24 91.7447 128.85C92.6847 131.46 93.6347 137.22 101.635 135.51C108.305 134.07 111.765 130.36 112.245 124.15C112.585 119.75 113.365 120.4 113.415 116.46L114.035 114.59C114.745 108.59 114.145 106.69 118.255 107.59L119.255 107.67C122.457 107.815 125.654 107.28 128.635 106.1C133.635 103.77 136.635 99.8802 131.635 100.9Z" fill="#31608A"></path>
    <path d="M82.4549 70.8201C81.6388 70.6443 80.7867 70.7685 80.0549 71.1701C79.9592 71.2379 79.8782 71.3241 79.8163 71.4237C79.7545 71.5233 79.7132 71.6343 79.6949 71.7501C79.6921 72.1636 79.8375 72.5645 80.1049 72.8801C80.587 73.5355 81.3034 73.9796 82.1049 74.1201H82.4249C82.9551 74.126 83.4743 73.969 83.9125 73.6703C84.3506 73.3717 84.6865 72.9458 84.8749 72.4501C84.9949 71.5601 83.7149 70.9701 82.4649 70.7901L82.4549 70.8201ZM116.085 70.8201C115.985 70.1301 114.755 69.9301 113.585 70.0901C112.415 70.2501 111.275 70.7901 111.375 71.4801C111.546 71.9254 111.847 72.3088 112.24 72.58C112.633 72.8512 113.098 72.9976 113.575 73.0001H113.875C114.493 72.8887 115.058 72.5799 115.485 72.1201C115.837 71.8037 116.052 71.3625 116.085 70.8901" fill="white"></path>
    <path d="M135.375 100.64C134.945 99.3404 133.565 98.9204 131.265 99.3904C124.445 100.8 122.005 99.8304 121.205 99.2304C126.603 90.9192 130.653 81.8067 133.205 72.2304C134.246 68.4354 134.847 64.533 134.995 60.6004C135.055 57.0004 134.445 54.3604 133.185 52.7504C128.105 46.2504 120.635 42.7604 111.635 42.6604C107.397 42.6048 103.182 43.2814 99.1748 44.6604C96.8832 44.0954 94.5348 43.7935 92.1748 43.7604C87.9246 43.5725 83.724 44.7347 80.1748 47.0804C77.0094 45.9191 73.7416 45.0586 70.4148 44.5104C62.5048 43.2404 56.2248 44.2004 51.7448 47.3904C46.3948 51.1604 43.9248 58.0004 44.4048 67.5504C44.5648 70.7804 46.4048 80.7104 49.2948 90.2204C53.1048 102.74 57.2948 109.83 61.6048 111.29C62.1693 111.477 62.7602 111.572 63.3548 111.57C64.9448 111.57 66.8948 110.86 68.9248 108.41C71.3981 105.47 73.9681 102.567 76.6348 99.7004C78.3311 100.627 80.2229 101.137 82.1548 101.19C82.1598 101.24 82.1598 101.291 82.1548 101.34C81.8248 101.74 81.5048 102.14 81.1548 102.55C79.8248 104.25 79.5448 104.55 75.2548 105.49C74.0248 105.74 70.7848 106.41 70.7348 108.69C70.6848 111.18 74.5748 112.23 75.0148 112.34C76.4684 112.717 77.9632 112.912 79.4648 112.92C82.7487 112.982 85.932 111.787 88.3648 109.58C88.2948 118.47 88.6648 127.22 89.7248 129.88C90.5948 132.07 92.7248 137.4 99.4448 137.4C100.546 137.385 101.642 137.25 102.715 137C109.715 135.49 112.775 132.38 113.955 125.53C114.635 121.9 115.635 113.15 116.175 108.46C117.461 108.812 118.791 108.977 120.125 108.95C123.209 108.975 126.267 108.39 129.125 107.23C131.665 106.05 136.235 103.16 135.405 100.64H135.375ZM118.635 68.9304C118.585 70.2717 118.445 71.608 118.215 72.9304C117.955 74.4656 117.788 76.0151 117.715 77.5704C117.709 79.3271 117.832 81.0819 118.085 82.8204C118.505 86.3204 118.935 89.9304 117.265 93.4904C116.991 92.9953 116.748 92.4844 116.535 91.9604C116.325 91.4604 115.875 90.6504 115.255 89.5304C112.825 85.1704 107.155 74.9704 110.055 70.8004C110.925 69.5604 113.115 68.2904 118.635 68.9704V68.9304ZM111.985 45.4704C120.065 45.6504 126.465 48.6804 130.985 54.4704C134.455 58.9104 130.635 79.1504 119.575 96.6104L119.235 96.1904L119.095 96.0004C121.955 91.2704 121.395 86.5804 120.895 82.4304C120.666 80.8305 120.549 79.2166 120.545 77.6004C120.617 76.1558 120.774 74.7167 121.015 73.2904C121.333 71.5455 121.48 69.7738 121.455 68.0004C121.497 67.7522 121.497 67.4986 121.455 67.2504C121.275 65.3404 119.095 59.6004 114.655 54.4104C111.71 50.9169 108.024 48.1226 103.865 46.2304C106.535 45.6767 109.258 45.4218 111.985 45.4704ZM66.7748 106.62C64.5448 109.32 62.9948 108.8 62.4948 108.62C59.1848 107.51 55.3448 100.51 51.9648 89.3904C49.0348 79.7804 47.3248 70.1104 47.1948 67.3904C46.7648 58.8304 48.8348 52.8604 53.3548 49.6404C60.7048 44.4204 72.7848 47.5504 77.6348 49.1304L77.4148 49.3404C69.4648 57.4004 69.6348 71.1904 69.6348 72.0004C69.6348 72.3304 69.6348 72.7904 69.7048 73.4204C70.0109 77.2792 69.9238 81.1592 69.4448 85.0004C69.1165 87.1912 69.2907 89.4281 69.9542 91.5417C70.6178 93.6553 71.7532 95.5903 73.2748 97.2004C73.5884 97.531 73.9223 97.8416 74.2748 98.1304C72.9048 99.6004 69.9448 102.84 66.7848 106.65L66.7748 106.62ZM75.2848 95.2304C74.0578 93.9257 73.143 92.3594 72.6094 90.6497C72.0759 88.94 71.9375 87.1314 72.2048 85.3604C72.7164 81.358 72.8237 77.3143 72.5248 73.2904C72.5248 72.9504 72.5248 72.6504 72.4748 72.4204C73.6348 71.4204 79.0248 68.4904 82.8748 69.3704C83.729 69.5616 84.5027 70.0137 85.0885 70.664C85.6744 71.3144 86.0436 72.1309 86.1448 73.0004C88.4448 83.6804 86.4548 88.1204 84.8448 91.7004C84.5148 92.4404 84.2048 93.1304 83.9348 93.8504L83.7248 94.4104C83.2116 95.7174 82.7742 97.053 82.4148 98.4104C81.0746 98.3868 79.7527 98.0941 78.5279 97.5495C77.303 97.0049 76.2001 96.2197 75.2848 95.2404V95.2304ZM75.6948 109.62C75.0336 109.462 74.4045 109.192 73.8348 108.82C74.477 108.549 75.1479 108.351 75.8348 108.23C80.8348 107.23 81.6648 106.45 83.3648 104.23C83.7548 103.73 84.2048 103.17 84.8148 102.48C85.7248 101.48 86.1448 101.63 86.9048 101.95C87.2629 102.145 87.5766 102.411 87.8262 102.733C88.0759 103.055 88.2558 103.425 88.3548 103.82C88.4568 104.108 88.4945 104.415 88.4651 104.719C88.4357 105.023 88.34 105.317 88.1848 105.58C84.6248 110.58 79.4348 110.51 75.7148 109.58L75.6948 109.62ZM102.125 134.29C95.9448 135.62 93.7648 132.46 92.3148 128.84C91.3848 126.51 90.9348 116 91.2548 104.37C91.2559 104.218 91.2357 104.067 91.1948 103.92C91.1525 103.644 91.0957 103.371 91.0248 103.1C90.8141 102.298 90.43 101.552 89.8995 100.914C89.3691 100.277 88.7053 99.7635 87.9548 99.4104C87.0769 98.9809 86.0795 98.8611 85.1248 99.0704C85.4636 97.8321 85.8709 96.6135 86.3448 95.4204L86.5548 94.8604C86.7848 94.2204 87.0848 93.5704 87.3948 92.8604C89.0648 89.1204 91.3948 83.9904 88.8748 72.4204C87.9348 68.0904 84.8148 65.9704 80.0848 66.4204C77.7354 66.7192 75.4572 67.4301 73.3548 68.5204L72.6348 69.0004C72.9948 64.6304 74.3648 56.4704 79.4748 51.3104C82.6348 48.0504 86.9148 46.4404 92.1348 46.5304C96.0787 46.5703 99.9659 47.4737 103.523 49.1772C107.08 50.8807 110.221 53.3428 112.725 56.3904C115.17 59.2546 117.078 62.5374 118.355 66.0804C113.145 65.5504 109.605 66.5804 107.815 69.1604C103.905 74.7604 109.945 85.6304 112.815 90.8504C113.345 91.8504 113.815 92.6404 113.955 92.9904C114.716 94.8025 115.747 96.4884 117.015 97.9904C117.295 98.3304 117.555 98.6604 117.755 98.9904C116.185 99.4504 113.345 100.5 113.605 105.77C113.395 108.41 111.915 120.77 111.165 125.16C110.165 130.94 108.045 133.09 102.085 134.37L102.125 134.29ZM127.925 104.69C125.732 105.566 123.404 106.053 121.045 106.13C118.215 106.26 116.765 105.81 116.435 105.53C116.275 102.25 117.435 101.91 118.775 101.53C118.978 101.481 119.178 101.421 119.375 101.35C119.495 101.46 119.626 101.557 119.765 101.64C122.035 103.15 126.095 103.31 131.835 102.12H131.895C130.713 103.179 129.374 104.046 127.925 104.69Z" fill="white"></path>
  </g>
  <defs>
    <clipPath id="clip0_910_107221">
      <rect width="96.73" height="100" fill="white" transform="translate(41.6348 40)"></rect>
    </clipPath>
  </defs>
</svg>
