<?xml version="1.0" encoding="UTF-8"?>
<svg xmlns="http://www.w3.org/2000/svg" width="181" height="181" viewBox="0 0 181 181" fill="none">
  <rect x="0.724121" y="0.405762" width="180" height="180" rx="32" fill="#F5FAFF"></rect>
  <path d="M137.082 113.072C131.745 115.854 104.1 127.221 98.2145 130.289C92.3289 133.358 89.0594 133.328 84.4098 131.105C79.7605 128.883 50.341 116.999 45.0414 114.466C42.393 113.2 41 112.132 41 111.122V101.014C41 101.014 79.3008 92.6765 85.484 90.4582C91.6668 88.2398 93.8121 88.1597 99.0738 90.0871C104.336 92.0152 135.8 97.6918 141 99.5965L140.998 109.561C140.998 110.561 139.798 111.657 137.082 113.072" fill="#912626"></path>
  <path d="M137.08 103.024C131.744 105.805 104.099 117.172 98.2136 120.24C92.3284 123.309 89.0589 123.279 84.4097 121.056C79.7601 118.835 50.3417 106.95 45.0425 104.418C39.7433 101.885 39.6323 100.142 44.8378 98.1034C50.0433 96.0643 79.3003 84.5858 85.4843 82.3674C91.6671 80.1499 93.812 80.069 99.0737 81.9971C104.336 83.9245 131.816 94.8623 137.015 96.7666C142.217 98.6733 142.416 100.243 137.08 103.024" fill="#C6302B"></path>
  <path d="M137.082 96.7175C131.745 99.4995 104.1 110.866 98.2145 113.935C92.3289 117.003 89.0594 116.973 84.4098 114.751C79.7602 112.529 50.341 100.644 45.0414 98.1113C42.393 96.8456 41 95.7784 41 94.7687V84.6597C41 84.6597 79.3008 76.3222 85.484 74.1038C91.6668 71.8855 93.8121 71.805 99.0738 73.7327C104.337 75.6605 135.8 81.3359 141 83.2409L140.998 93.207C140.998 94.2058 139.798 95.3019 137.082 96.7175Z" fill="#912626"></path>
  <path d="M137.08 86.6693C131.744 89.4506 104.099 100.817 98.2136 103.886C92.3284 106.954 89.0589 106.924 84.4097 104.701C79.7601 102.48 50.3417 90.5951 45.0425 88.0631C39.7433 85.5306 39.6323 83.7869 44.8378 81.7478C50.0433 79.7099 79.3007 68.2306 85.4843 66.0127C91.6671 63.7947 93.812 63.7142 99.0737 65.642C104.336 67.5693 131.816 78.5064 137.015 80.4115C142.217 82.3177 142.416 83.8881 137.08 86.6693" fill="#C6302B"></path>
  <path d="M137.082 79.7558C131.745 82.5371 104.1 93.9043 98.2145 96.9738C92.3289 100.042 89.0594 100.012 84.4098 97.789C79.7602 95.5675 50.341 83.6824 45.0414 81.1503C42.393 79.8835 41 78.816 41 77.8074V67.698C41 67.698 79.3008 59.3609 85.484 57.1429C91.6668 54.9241 93.8121 54.8444 99.0738 56.7718C104.337 58.6995 135.8 64.3749 141 66.28L140.998 76.2456C140.998 77.2437 139.798 78.3398 137.082 79.7558Z" fill="#912626"></path>
  <path d="M137.08 69.7079C131.744 72.4892 104.099 83.8564 98.2139 86.9243C92.3287 89.9923 89.0592 89.9622 84.41 87.7407C79.7607 85.5181 50.342 73.6337 45.0432 71.1013C39.7436 68.5692 39.633 66.8251 44.8381 64.7864C50.0436 62.7481 79.301 51.2704 85.4846 49.0517C91.6674 46.8333 93.8123 46.7536 99.074 48.6813C104.336 50.6091 131.816 61.5462 137.015 63.4513C142.217 65.356 142.417 66.9267 137.08 69.7079" fill="#C6302B"></path>
  <path d="M103.22 59.8745L94.6225 60.7671L92.6979 65.3983L89.5893 60.2304L79.6616 59.3382L87.0694 56.6667L84.8467 52.5659L91.7823 55.2784L98.3206 53.1378L96.5534 57.378L103.22 59.8745V59.8745ZM92.1846 82.3424L76.1389 75.6874L99.1311 72.1581L92.1846 82.3424V82.3424ZM69.9385 62.4487C76.7256 62.4487 82.2276 64.5815 82.2276 67.212C82.2276 69.8432 76.7256 71.9757 69.9385 71.9757C63.1514 71.9757 57.6494 69.8428 57.6494 67.212C57.6494 64.5815 63.1514 62.4487 69.9385 62.4487Z" fill="white"></path>
  <path d="M113.381 61.1405L126.989 66.5179L113.393 71.8902L113.381 61.1401" fill="#621B1C"></path>
  <path d="M98.3262 67.0957L113.381 61.1406L113.393 71.8903L111.916 72.4676L98.3262 67.0957Z" fill="#9A2928"></path>
</svg>
