<?xml version="1.0" encoding="UTF-8"?>
<svg xmlns="http://www.w3.org/2000/svg" width="180" height="180" viewBox="0 0 180 180" fill="none">
  <rect width="180" height="180" rx="32" fill="#F5FAFF"></rect>
  <path d="M73.9318 89.3374C72.1458 89.3374 70.6934 89.8663 69.5801 90.9228C68.4671 91.9806 67.9023 93.367 67.9023 95.066C67.9023 95.9463 68.0424 96.7491 68.3186 97.4846C68.5951 98.2216 69.0253 98.9045 69.6034 99.5216C70.1816 100.139 71.3389 100.978 73.0636 102.044C75.1802 103.336 76.565 104.385 77.2298 105.204C77.8949 106.022 78.225 106.879 78.225 107.773C78.225 108.969 77.8313 109.925 77.0214 110.643C76.2105 111.361 75.1257 111.719 73.7812 111.719C72.3629 111.719 71.1273 111.219 70.0664 110.226C69.0054 109.232 68.4697 107.917 68.4577 106.268H67.7979V112.251H68.4577C68.6593 111.685 68.9379 111.395 69.3026 111.395C69.478 111.395 69.8891 111.516 70.5293 111.742C72.0869 112.296 73.366 112.564 74.3714 112.564C76.1039 112.564 77.583 111.957 78.8152 110.724C80.0458 109.491 80.6669 108.004 80.6669 106.268C80.6669 104.922 80.2569 103.725 79.452 102.681C78.6469 101.636 77.0814 100.42 74.7416 99.0239C72.7284 97.8142 71.4216 96.8292 70.8186 96.0612C70.2146 95.2943 69.9043 94.446 69.9043 93.5152C69.9043 92.5084 70.2743 91.6997 71.0037 91.0964C71.7332 90.4929 72.6891 90.1939 73.8854 90.1939C75.2313 90.1939 76.3535 90.5934 77.2413 91.3975C78.1284 92.2029 78.6414 93.3191 78.7922 94.7534H79.452V89.5691H78.8385C78.7634 89.8333 78.694 90.0022 78.6301 90.0781C78.568 90.1535 78.4486 90.1939 78.2714 90.1939C78.058 90.1939 77.6776 90.104 77.1371 89.9276C75.9798 89.538 74.9129 89.3374 73.9315 89.3374H73.9318ZM95.4915 89.3374C93.3155 89.3374 91.3397 89.8506 89.5548 90.8767C87.767 91.901 86.3518 93.3235 85.3076 95.1354C84.2637 96.9473 83.7452 98.8712 83.7452 100.922C83.7452 103.676 84.647 106.131 86.4649 108.282C88.2836 110.432 90.4631 111.771 92.9918 112.286C93.57 112.587 94.3971 113.365 95.48 114.624C96.7002 116.044 97.7326 117.069 98.5814 117.679C99.4112 118.277 100.334 118.735 101.312 119.033C102.281 119.328 103.328 119.473 104.46 119.473C105.832 119.473 107.059 119.234 108.14 118.744L107.897 118.142C107.27 118.368 106.6 118.477 105.895 118.477C104.938 118.477 103.971 118.162 103.002 117.529C102.034 116.893 100.824 115.682 99.38 113.895C98.7013 113.038 98.2329 112.498 97.968 112.286C100.735 111.746 103.01 110.405 104.784 108.259C106.558 106.114 107.446 103.666 107.446 100.922C107.446 97.6639 106.287 94.9257 103.986 92.6936C101.683 90.4609 98.8508 89.3374 95.4915 89.3374ZM108.95 89.3374L108.985 90.0433C110.434 90.0433 111.246 90.4701 111.427 91.3278C111.495 91.635 111.526 92.2016 111.531 93.0174L111.52 108.629C111.508 109.795 111.342 110.54 111.022 110.863C110.702 111.183 110.161 111.384 109.379 111.464L109.344 112.17H123.787L124.157 108.629H123.497C123.309 109.594 122.877 110.285 122.19 110.677C121.5 111.073 120.282 111.268 118.521 111.268H117.156C115.571 111.268 114.655 110.695 114.413 109.543C114.363 109.315 114.346 109.071 114.343 108.803L114.401 93.0174C114.401 91.8533 114.548 91.0733 114.853 90.6913C115.16 90.3109 115.715 90.098 116.519 90.0433L116.484 89.3374H108.95ZM95.7227 90.1936C98.1774 90.1936 100.181 91.1605 101.729 93.1101C103.277 95.0605 104.044 97.7336 104.044 101.119C104.044 104.326 103.266 106.894 101.706 108.826C100.146 110.757 98.0709 111.719 95.4915 111.719C93.0136 111.719 91.004 110.727 89.4621 108.733C87.9215 106.74 87.1593 104.151 87.1593 100.968C87.1593 97.6972 87.9309 95.0789 89.4854 93.1217C91.0388 91.1668 93.1191 90.1939 95.723 90.1939L95.7227 90.1936ZM128.937 93.55C128.584 93.55 128.316 93.6689 128.115 93.9087C127.909 94.1475 127.846 94.4368 127.918 94.7882C127.988 95.1291 128.18 95.4276 128.485 95.6792C128.789 95.9306 129.117 96.0612 129.469 96.0612C129.81 96.0612 130.069 95.9306 130.256 95.6792C130.442 95.4279 130.499 95.1291 130.429 94.7882C130.358 94.4368 130.172 94.1475 129.886 93.9085C129.596 93.6689 129.277 93.55 128.937 93.55ZM138.461 95.9455C137.862 98.2481 136.565 99.4941 134.573 99.695L134.596 100.355H136.922L136.875 108.155C136.879 109.488 136.92 110.376 137.014 110.828C137.244 111.91 137.95 112.46 139.132 112.46C140.843 112.46 142.637 111.418 144.513 109.335L143.946 108.849C142.591 110.221 141.394 110.909 140.347 110.909C139.704 110.909 139.306 110.539 139.155 109.81C139.114 109.632 139.098 109.425 139.098 109.185L139.121 100.355H142.673L142.639 99.3014H139.132V95.9455H138.461ZM152.198 98.8848C150.21 98.8848 148.594 99.8497 147.337 101.767C146.087 103.687 145.7 105.814 146.191 108.155C146.481 109.526 147.057 110.588 147.939 111.337C148.819 112.086 149.936 112.46 151.272 112.46C152.515 112.46 154.246 112.145 154.975 111.511C155.706 110.877 156.378 109.85 157 108.444L156.503 107.923C155.511 109.747 153.51 110.666 152.001 110.666C149.926 110.666 148.655 109.528 148.182 107.263C148.118 106.958 148.072 106.649 148.043 106.338C150.511 105.947 152.382 105.255 153.644 104.255C154.906 103.254 156.172 102.193 155.936 101.072C155.795 100.406 155.449 99.8824 154.917 99.4868C154.378 99.0912 152.98 98.8848 152.198 98.8848ZM130.476 98.966L126.194 99.9497V100.713L127.675 100.528C128.393 100.528 128.815 100.853 128.948 101.5C128.993 101.717 129.021 102.021 129.029 102.403L128.983 109.404C128.971 110.373 128.863 110.936 128.647 111.106C128.429 111.275 127.854 111.36 126.923 111.36L126.9 112.02H133.693L133.681 111.36C132.737 111.36 132.125 111.286 131.853 111.14C131.585 110.996 131.4 110.733 131.321 110.33C131.259 110.04 131.232 109.54 131.228 108.849L131.251 98.966H130.476H130.476ZM151.11 100.262C151.523 100.262 151.923 100.422 152.325 100.737C152.722 101.05 152.963 101.399 153.042 101.778C153.43 103.64 151.78 104.926 148.066 105.643C147.96 104.286 148.195 103.054 148.795 101.94C149.391 100.827 150.166 100.262 151.11 100.262Z" fill="#003B57"></path>
  <path d="M64.3401 62.6064H27.4904C25.0206 62.6064 23 64.6273 23 67.0969V107.735C23 110.205 25.0206 112.226 27.4904 112.226H51.7604C51.485 100.149 55.6088 76.7134 64.3401 62.6064Z" fill="#0F80CC"></path>
  <path d="M63.0013 63.916H27.4903C25.7366 63.916 24.3096 65.3427 24.3096 67.0967V104.77C32.352 101.683 44.4227 99.0201 52.7689 99.141C54.4462 90.3713 59.3754 73.1846 63.0013 63.916Z" fill="url(#paint0_linear_917_107345)"></path>
  <path d="M72.9349 61.2757C70.4111 59.0252 67.3553 59.9291 64.3398 62.6058C63.8921 63.0032 63.4454 63.4444 63.001 63.9157C57.8419 69.3888 53.053 79.5261 51.5653 87.2685C52.145 88.4439 52.5977 89.9436 52.8956 91.0894C52.9721 91.3832 53.041 91.6592 53.0962 91.8938C53.2271 92.4494 53.2976 92.8094 53.2976 92.8094C53.2976 92.8094 53.2512 92.6345 53.0614 92.0841C53.0253 91.9786 52.9849 91.8634 52.9373 91.7278C52.9124 91.6615 52.8859 91.5958 52.8577 91.5309C52.5212 90.7485 51.5904 89.0974 51.1806 88.3784C50.8559 89.331 50.5494 90.2898 50.2614 91.2541C51.444 93.4181 52.1649 97.1267 52.1649 97.1267C52.1649 97.1267 52.1023 96.8864 51.8051 96.0475C51.5412 95.3057 50.2271 93.0029 49.9157 92.4646C49.3832 94.4307 49.1716 95.7579 49.3625 96.081C49.733 96.707 50.0857 97.7876 50.3957 98.9823C51.0956 101.674 51.5818 104.951 51.5818 104.951C51.5818 104.951 51.5975 105.168 51.6242 105.502C51.5268 107.763 51.5852 110.107 51.7603 112.225C51.9921 115.029 52.4285 117.438 52.9849 118.727L53.3628 118.521C52.5458 115.981 52.2138 112.653 52.3591 108.814C52.5791 102.946 53.9294 95.8694 56.4244 88.4939C60.6398 77.36 66.4881 68.4268 71.8408 64.1605C66.962 68.5666 60.3592 82.8284 58.3826 88.1095C56.1693 94.0238 54.601 99.5736 53.6557 104.891C55.2867 99.9058 60.5597 97.7633 60.5597 97.7633C60.5597 97.7633 63.1458 94.5736 66.1682 90.0167C64.3579 90.4296 61.385 91.1365 60.3893 91.555C58.9204 92.171 58.5248 92.3813 58.5248 92.3813C58.5248 92.3813 63.2823 89.4839 67.3642 88.1721C72.9779 79.3305 79.094 66.7699 72.9349 61.2757Z" fill="#003B57"></path>
  <defs>
    <linearGradient id="paint0_linear_917_107345" x1="2255.35" y1="147.503" x2="2255.35" y2="3922.12" gradientUnits="userSpaceOnUse">
      <stop stop-color="#97D9F6"></stop>
      <stop offset="0.92024" stop-color="#0F80CC"></stop>
      <stop offset="1" stop-color="#0F80CC"></stop>
    </linearGradient>
  </defs>
</svg>
