<?xml version="1.0" encoding="UTF-8"?>
<svg xmlns="http://www.w3.org/2000/svg" width="180" height="180" viewBox="0 0 180 180" fill="none">
  <rect width="180" height="180" rx="32" fill="#F5FAFF"></rect>
  <path d="M136.564 101.608C130.151 127.336 104.084 142.976 78.393 136.562C52.6642 130.149 37.0244 104.083 43.4381 78.3922C49.8513 52.6642 75.8801 37.0244 101.609 43.4381C127.3 49.8138 142.978 75.8794 136.564 101.608Z" fill="url(#paint0_linear_906_198)"></path>
  <path d="M112.825 84.4125C113.763 78.0375 108.925 74.5875 102.25 72.3L104.425 63.6375L99.175 62.325L97.075 70.7625C95.6875 70.425 94.2625 70.0875 92.8375 69.7875L94.9375 61.3125L89.6875 60L87.55 68.625C86.3875 68.3625 85.2625 68.1 84.175 67.8375V67.8L76.9 66L75.5125 71.625C75.5125 71.625 79.4125 72.525 79.3375 72.5625C81.475 73.0875 81.85 74.5125 81.775 75.6375L79.3 85.5C79.45 85.5375 79.6375 85.575 79.8625 85.6875C79.675 85.65 79.4875 85.6125 79.3 85.5375L75.85 99.3375C75.5875 99.975 74.9125 100.95 73.45 100.575C73.4875 100.65 69.625 99.6375 69.625 99.6375L67 105.675L73.8625 107.4C75.1375 107.738 76.375 108.038 77.6125 108.375L75.4375 117.113L80.6875 118.425L82.8625 109.763C84.2875 110.138 85.7125 110.513 87.0625 110.85L84.925 119.475L90.175 120.788L92.35 112.05C101.35 113.738 108.1 113.063 110.913 104.925C113.2 98.4 110.8 94.6125 106.075 92.1375C109.563 91.35 112.15 89.0625 112.825 84.4125ZM100.788 101.288C99.175 107.813 88.15 104.288 84.5875 103.388L87.475 91.8C91.0375 92.7 102.513 94.4625 100.788 101.288ZM102.438 84.3C100.938 90.2625 91.7875 87.225 88.825 86.475L91.45 75.975C94.4125 76.725 103.975 78.1125 102.438 84.3Z" fill="white"></path>
  <defs>
    <linearGradient id="paint0_linear_906_198" x1="4839.41" y1="39.696" x2="4839.41" y2="9641.04" gradientUnits="userSpaceOnUse">
      <stop stop-color="#F9AA4B"></stop>
      <stop offset="1" stop-color="#F7931A"></stop>
    </linearGradient>
  </defs>
</svg>
