<?xml version="1.0" encoding="UTF-8"?>
<svg xmlns="http://www.w3.org/2000/svg" width="180" height="180" viewBox="0 0 180 180" fill="none">
  <rect width="180" height="180" rx="32" fill="#F5FAFF"></rect>
  <path d="M142.839 38L95.4683 73.0507L104.277 52.3943L142.839 38Z" fill="#E17726"></path>
  <path d="M37.6694 38.0412L76.1278 52.3967L84.4921 73.3239L37.6694 38.0412ZM123.775 112.543L144.712 112.941L137.394 137.799L111.846 130.765L123.775 112.543ZM56.6215 112.543L68.5052 130.765L43.0004 137.799L35.7275 112.941L56.6215 112.543Z" fill="#E27625"></path>
  <path d="M83.3554 67.9935L84.211 95.6286L58.6079 94.4638L65.8907 83.4767L65.983 83.371L83.3554 67.9935ZM96.7769 67.6851L114.415 83.3719L114.506 83.4771L121.789 94.4642L96.1913 95.6286L96.7769 67.6851ZM69.2556 112.623L83.2356 123.516L66.9959 131.356L69.2556 112.623ZM111.145 112.622L113.357 131.357L97.1629 123.515L111.145 112.622Z" fill="#E27625"></path>
  <path d="M97.5207 122.489L113.954 130.447L98.6678 137.711L98.8265 132.91L97.5207 122.489ZM82.8728 122.493L81.6183 132.831L81.7214 137.706L66.3994 130.447L82.8728 122.493Z" fill="#D5BFB2"></path>
  <path d="M78.1268 99.2355L82.4211 108.26L67.8008 103.977L78.1268 99.2355ZM102.27 99.2363L112.645 103.977L97.9763 108.259L102.27 99.2363Z" fill="#233447"></path>
  <path d="M70.3728 112.531L68.0096 131.954L55.3428 112.956L70.3728 112.531ZM110.025 112.532L125.056 112.956L112.341 131.955L110.025 112.532ZM122.159 93.3657L111.22 104.514L102.786 100.66L98.7488 109.148L96.1018 94.5511L122.159 93.3657ZM58.2329 93.3657L84.2949 94.5511L81.6475 109.148L77.609 100.661L69.2201 104.514L58.2329 93.3657Z" fill="#CC6228"></path>
  <path d="M57.4961 91.0777L69.8718 103.636L70.3005 116.033L57.4961 91.0777ZM122.914 91.0552L110.086 116.055L110.569 103.636L122.914 91.0552ZM83.69 91.8427L84.1881 94.9778L85.4189 102.788L84.6275 126.776L80.8865 107.506L80.8852 107.306L83.69 91.8427ZM96.7009 91.7991L99.513 107.306L99.5118 107.506L95.7613 126.824L95.6129 121.992L95.0277 102.646L96.7009 91.7991Z" fill="#E27525"></path>
  <path d="M111.669 103.137L111.251 113.908L98.1952 124.08L95.556 122.215L98.5143 106.978L111.669 103.137ZM68.7734 103.137L81.8827 106.978L84.841 122.215L82.2018 124.08L69.146 113.908L68.7734 103.137Z" fill="#F5841F"></path>
  <path d="M63.9014 128.068L80.6041 135.982L80.5334 132.602L81.9311 131.375H98.4622L99.9103 132.598L99.8033 135.975L116.4 128.088L108.324 134.761L98.5588 141.469H81.7969L72.038 134.734L63.9014 128.068Z" fill="#C0AC9D"></path>
  <path d="M96.3236 121.436L98.685 123.104L100.069 134.146L98.0662 132.455H82.3363L80.3716 134.18L81.7102 123.105L84.0725 121.436H96.3236Z" fill="#161616"></path>
  <path d="M139.711 38.9703L145.397 56.0288L141.846 73.2771L144.375 75.2276L140.953 77.8383L143.525 79.8246L140.119 82.9257L142.21 84.4397L136.662 90.9195L113.905 84.2935L113.708 84.1879L97.3094 70.3546L139.711 38.9703ZM40.6863 38.9703L83.0884 70.3546L66.6892 84.1879L66.4921 84.2935L43.7356 90.9195L38.1873 84.4397L40.2762 82.9269L36.8729 79.8246L39.4396 77.8405L35.9664 75.2224L38.5905 73.2706L35 56.0297L40.6863 38.9703Z" fill="#763E1A"></path>
  <path d="M112.792 82.8446L136.904 89.8647L144.737 114.008H124.071L109.831 114.187L120.187 94.002L112.792 82.8446ZM67.6049 82.8446L60.2087 94.002L70.5658 114.187L56.3328 114.008H35.7031L43.4926 89.8651L67.6049 82.8446ZM105.457 52.2792L98.7133 70.4943L97.282 95.1008L96.7343 102.814L96.6907 122.516H83.7057L83.6634 102.851L83.114 95.0944L81.6823 70.4943L74.939 52.2792H105.457Z" fill="#F5841F"></path>
</svg>
