<?xml version="1.0" encoding="UTF-8"?>
<svg xmlns="http://www.w3.org/2000/svg" width="180" height="180" viewBox="0 0 180 180" fill="none">
  <rect width="180" height="180" rx="32" fill="#F5FAFF"></rect>
  <path d="M126.969 101.184C123.252 99.0645 119.058 98.4334 114.901 98.2757C111.443 98.1738 106.253 95.8961 106.253 89.5824C106.253 84.8758 110.053 81.0764 114.953 80.889C119.111 80.7313 123.305 80.1002 127.019 77.9606C132.061 75.0489 135.741 70.2543 137.25 64.6305C138.758 59.0067 137.973 53.0139 135.065 47.9694C132.132 42.9216 127.316 39.2433 121.674 37.7417C116.033 36.2401 110.026 37.0378 104.972 39.9597C101.626 41.8789 98.8482 44.6497 96.9206 47.9905C94.993 51.3313 93.9844 55.1229 93.9973 58.9799C93.9973 63.2394 95.5223 67.144 97.4549 70.8087C99.0851 73.8555 99.8706 79.5546 94.3391 82.7559C90.1814 85.1354 84.995 83.6499 82.4281 79.5053C80.2556 75.9951 77.6328 72.7249 73.9188 70.6049C63.4112 64.5278 49.9554 68.1366 43.9309 78.6146C41.025 83.661 40.2415 89.6546 41.7527 95.2783C43.2638 100.902 46.946 105.696 51.9899 108.606C55.329 110.523 59.1122 111.532 62.9626 111.532C66.8129 111.532 70.5961 110.523 73.9352 108.606C77.6328 106.479 80.2556 103.212 82.4281 99.7054C84.2062 96.8427 88.7089 93.1813 94.3391 96.4483C98.5033 98.8114 99.7851 104.07 97.4549 108.415C95.5387 112.008 93.9973 115.965 93.9973 120.224C93.9973 132.346 103.828 142.153 115.943 142.17C121.762 142.167 127.342 139.854 131.457 135.739C135.572 131.624 137.885 126.044 137.888 120.224C137.907 116.37 136.907 112.579 134.989 109.236C133.071 105.893 130.303 103.116 126.966 101.188L126.969 101.184Z" fill="black"></path>
</svg>
