<?xml version="1.0" encoding="UTF-8"?>
<svg xmlns="http://www.w3.org/2000/svg" width="180" height="180" viewBox="0 0 180 180" fill="none">
  <rect width="180" height="180" rx="32" fill="#F5FAFF"></rect>
  <path fill-rule="evenodd" clip-rule="evenodd" d="M71.5289 53.1965C72.2945 52.4307 73.3329 52.0003 74.4158 52.0001H127.499C128.307 52.0002 129.096 52.2398 129.767 52.6885C130.439 53.1372 130.962 53.7749 131.271 54.5209C131.58 55.2669 131.661 56.0878 131.503 56.8798C131.346 57.6717 130.957 58.3992 130.386 58.9703L118.136 71.2203C117.37 71.9861 116.332 72.4165 115.249 72.4167H62.1658C61.3583 72.4166 60.569 72.177 59.8977 71.7283C59.2263 71.2796 58.7031 70.6419 58.3941 69.8959C58.0851 69.1499 58.0043 68.329 58.1617 67.537C58.3192 66.745 58.708 66.0175 59.2789 65.4465L71.5289 53.1965ZM58.5643 78.6561C58.9132 78.0043 59.4325 77.4596 60.0668 77.0799C60.7011 76.7002 61.4265 76.4998 62.1658 76.5001H115.249C115.921 76.5 116.583 76.6658 117.176 76.9827C117.768 77.2997 118.273 77.7581 118.646 78.3171L126.813 90.5671C127.223 91.1821 127.459 91.8969 127.495 92.6353C127.531 93.3737 127.366 94.1079 127.017 94.7598C126.668 95.4116 126.149 95.9565 125.515 96.3364C124.88 96.7163 124.155 96.9168 123.416 96.9167H70.3325C69.6604 96.9168 68.9987 96.751 68.406 96.4341C67.8134 96.1171 67.3081 95.6587 66.9351 95.0996L58.7685 82.8496C58.3579 82.2346 58.1221 81.5197 58.0861 80.7811C58.0502 80.0425 58.2154 79.308 58.5643 78.6561ZM67.4455 102.196C68.2111 101.431 69.2496 101 70.3325 101H123.416C124.223 101 125.013 101.24 125.684 101.689C126.355 102.137 126.878 102.775 127.187 103.521C127.496 104.267 127.577 105.088 127.42 105.88C127.262 106.672 126.874 107.399 126.303 107.97L114.053 120.22C113.287 120.986 112.249 121.416 111.166 121.417H58.0825C57.275 121.417 56.4857 121.177 55.8143 120.728C55.143 120.28 54.6198 119.642 54.3108 118.896C54.0018 118.15 53.9209 117.329 54.0784 116.537C54.2359 115.745 54.6247 115.018 55.1955 114.446L67.4455 102.196Z" fill="url(#paint0_linear_917_107348)"></path>
  <defs>
    <linearGradient id="paint0_linear_917_107348" x1="92.7908" y1="52.0001" x2="92.7908" y2="121.417" gradientUnits="userSpaceOnUse">
      <stop stop-color="#20DDB0"></stop>
      <stop offset="0.0001" stop-color="#20DDB0"></stop>
      <stop offset="1" stop-color="#9747FF"></stop>
    </linearGradient>
  </defs>
</svg>
